<svg width="48" height="48" viewBox="0 0 48 48" fill="none" xmlns="http://www.w3.org/2000/svg">
<path d="M24 48C37.2548 48 48 37.2548 48 24C48 10.7452 37.2548 0 24 0C10.7452 0 0 10.7452 0 24C0 37.2548 10.7452 48 24 48Z" fill="#010201"/>
<path d="M17.5947 33.6324C17.6235 33.6587 17.6523 33.6846 17.6811 33.7109C17.9467 33.9008 18.139 34.1685 18.3932 34.3726C19.1826 35.0062 20.07 35.3508 21.0876 35.4133C23.4994 35.5623 25.6011 33.7476 25.8731 31.3629C25.8862 31.2466 25.882 31.1293 25.882 31.0126C25.8823 23.8333 25.882 16.6539 25.8823 9.4745C25.8823 8.98988 25.8823 8.98988 26.3644 8.98988C27.4553 8.98988 28.5465 8.98917 29.6373 8.99094C29.7394 8.99094 29.8464 8.97174 29.9399 9.03646C29.9456 9.04214 29.9524 9.04712 29.9591 9.05103C30.0114 9.10508 30.0267 9.17441 30.042 9.24481C30.4604 11.1801 31.4788 12.7239 33.0759 13.8894C33.1755 13.9623 33.2594 14.0533 33.3547 14.1309C33.4244 14.1899 33.4937 14.2489 33.5634 14.3079C33.8212 14.4541 34.0028 14.6894 34.2268 14.8761C35.11 15.6121 36.107 16.1195 37.2192 16.4057C37.3173 16.4309 37.429 16.4292 37.5004 16.522C37.5054 16.5284 37.5115 16.5333 37.5186 16.5373C37.584 16.6066 37.573 16.6941 37.573 16.7773C37.574 18.043 37.5748 19.3088 37.573 20.5746C37.5726 20.8644 37.5339 20.8789 37.2412 20.8793C36.314 20.8807 35.4037 20.7556 34.5024 20.5493C32.9532 20.1952 31.5236 19.5652 30.1973 18.6941C30.1284 18.6489 30.0548 18.5515 29.9815 18.5849C29.8876 18.6276 29.9371 18.7481 29.9371 18.8334C29.9346 22.3968 29.9506 25.9605 29.93 29.5239C29.9154 32.0153 29.1232 34.2439 27.4923 36.1422C25.7596 38.1589 23.5591 39.3298 20.917 39.6523C18.8811 39.9008 16.9493 39.5328 15.1157 38.6269C14.8188 38.4804 14.5355 38.3097 14.2702 38.1099C14.1867 38.0359 14.1031 37.9616 14.0196 37.8877C13.3874 37.3661 12.9479 36.6905 12.5376 35.9979C11.9054 34.9312 11.4955 33.7799 11.2953 32.5554C11.1808 31.8557 11.1225 31.1499 11.1612 30.4423C11.286 28.1604 12.0533 26.1245 13.525 24.3645C14.7595 22.8878 16.3004 21.8564 18.117 21.2363C18.875 20.9774 19.6572 20.8167 20.4587 20.7605C20.6073 20.7502 20.7538 20.7147 20.9045 20.7243C20.9756 20.7289 21.0485 20.7214 21.109 20.7709C21.1157 20.7769 21.1228 20.7819 21.1314 20.7858C21.1733 20.8573 21.163 20.9369 21.163 21.0141C21.1641 22.2987 21.1637 23.5829 21.1637 24.8676C21.1637 24.9131 21.1623 24.9582 21.1602 25.0037C21.1541 25.1325 21.0884 25.1755 20.9668 25.141C20.6155 25.0411 20.2546 24.9949 19.8919 24.9757C19.3287 24.9458 18.774 25.0261 18.2471 25.2203C16.4814 25.8717 15.4098 27.136 15.1858 28.9991C14.9653 30.8352 15.6896 32.3037 17.2171 33.3614C17.3436 33.4496 17.4752 33.5325 17.5947 33.6324Z" fill="white"/>
<path d="M14.2695 38.1098C14.3378 38.0914 14.3762 38.1454 14.4238 38.1746C15.5719 38.8746 16.811 39.3319 18.138 39.5456C18.8053 39.653 19.4795 39.6981 20.155 39.6629C22.4142 39.5456 24.4352 38.7943 26.1838 37.3497C27.8663 35.9594 28.9849 34.2026 29.5442 32.0931C29.7209 31.4272 29.818 30.7488 29.8532 30.0597C29.8734 29.6636 29.8716 29.2682 29.8716 28.8725C29.8727 25.4766 29.8724 22.0807 29.8724 18.6848C29.8724 18.6076 29.8724 18.5305 29.8724 18.4533C29.9609 18.4291 30.0007 18.4953 30.0498 18.5287C31.259 19.3564 32.5678 19.9694 33.9812 20.3584C34.7573 20.5721 35.5456 20.7146 36.3488 20.7847C36.6859 20.8142 37.0233 20.8103 37.36 20.8345C37.5076 20.8451 37.5093 20.8398 37.5111 20.6855C37.5129 20.5234 37.5115 20.3609 37.5115 20.1984C37.5115 19.0492 37.5115 17.8997 37.5118 16.7506C37.5118 16.6794 37.5161 16.608 37.5186 16.5369C37.8212 16.571 38.1195 16.6361 38.4238 16.6592C38.6119 16.6734 38.7996 16.6908 38.9877 16.6851C39.0809 16.6823 39.12 16.715 39.1097 16.8085C39.1054 16.8469 39.109 16.8864 39.109 16.9251C39.109 18.5874 39.109 20.2492 39.109 21.9114C39.109 21.9438 39.1097 21.9765 39.1086 22.0089C39.1047 22.1536 39.1047 22.1568 38.9518 22.1561C38.4316 22.1546 37.9132 22.1209 37.398 22.0522C36.346 21.9129 35.3227 21.6558 34.3332 21.2697C33.3867 20.9006 32.4935 20.4295 31.6562 19.8535C31.6043 19.8179 31.5502 19.7852 31.4702 19.7333C31.4702 19.8293 31.4702 19.8976 31.4702 19.9662C31.4702 23.5957 31.4731 27.2249 31.4692 30.8544C31.467 32.7886 30.966 34.5863 29.9346 36.2254C28.6884 38.2055 26.9582 39.5979 24.7595 40.3968C23.4251 40.8818 22.0444 41.0677 20.6254 40.9632C18.2325 40.7865 16.1621 39.8731 14.4004 38.251C14.3534 38.2087 14.3132 38.1575 14.2695 38.1098Z" fill="#CB1C54"/>
<path d="M29.9396 9.03643C29.8684 9.03998 29.7973 9.04638 29.7266 9.04638C28.5575 9.04709 27.3881 9.04674 26.219 9.04674C25.9477 9.04674 25.9477 9.04674 25.9477 9.30914C25.9477 16.4512 25.9467 23.5932 25.9495 30.7349C25.9499 31.2313 25.9129 31.7205 25.7575 32.1934C25.2085 33.8652 24.0875 34.9667 22.374 35.3579C20.5355 35.7774 18.9746 35.2167 17.7319 33.7916C17.7113 33.7678 17.6974 33.7379 17.6807 33.7109C18.0359 33.8521 18.3904 33.9943 18.768 34.069C19.9662 34.3058 21.0951 34.123 22.1348 33.4819C23.3355 32.7417 24.0444 31.6579 24.293 30.2738C24.3399 30.0121 24.3477 29.7454 24.3477 29.4787C24.3463 22.3232 24.3463 15.168 24.3474 8.01243C24.3474 7.67892 24.3008 7.72087 24.6329 7.72052C26.2827 7.71909 27.9328 7.7198 29.5826 7.7198C29.6217 7.7198 29.6604 7.71909 29.6996 7.7198C29.8684 7.72265 29.8713 7.72265 29.8706 7.89367C29.8688 8.27625 29.8642 8.65883 29.9396 9.03643Z" fill="#6ABAC5"/>
<path d="M21.1083 20.7708C20.1003 20.8046 19.1143 20.9642 18.1557 21.2828C16.7712 21.7429 15.541 22.4643 14.4683 23.4535C13.0606 24.7509 12.1003 26.3242 11.5758 28.1617C11.3888 28.8167 11.2804 29.4865 11.2327 30.1678C11.2043 30.5767 11.1954 30.9855 11.2171 31.3923C11.2775 32.5251 11.5122 33.622 11.9431 34.6748C12.4245 35.8513 13.0987 36.9031 13.9755 37.8243C13.9929 37.8424 14.0046 37.8659 14.0192 37.8872C13.8197 37.8015 13.6601 37.6568 13.4933 37.5249C11.8564 36.2271 10.7029 34.5916 10.0679 32.598C9.84711 31.9043 9.70951 31.1935 9.64231 30.4675C9.59395 29.942 9.5872 29.4161 9.62169 28.8924C9.70062 27.6849 9.98649 26.5251 10.4853 25.42C11.0066 24.2655 11.7177 23.2412 12.6219 22.3551C13.675 21.3237 14.8946 20.5507 16.2841 20.0508C17.1556 19.7375 18.0519 19.5477 18.9764 19.4801C19.6459 19.4311 20.3111 19.446 20.9767 19.5249C21.0667 19.5356 21.1193 19.5537 21.1175 19.6607C21.1104 20.0312 21.1108 20.401 21.1083 20.7708Z" fill="#6ABAC5"/>
<path d="M17.5947 33.6323C17.1879 33.4488 16.8366 33.1839 16.518 32.8774C15.7173 32.1066 15.2405 31.1669 15.1168 30.0625C14.8576 27.7453 16.3186 25.7457 18.3474 25.126C19.2135 24.8614 20.0811 24.8518 20.9536 25.0861C21.0023 25.0993 21.05 25.1203 21.104 25.106C21.1332 25.0367 21.1186 24.9645 21.1186 24.8941C21.1196 23.596 21.1193 22.2975 21.1196 20.999C21.1196 20.9279 21.1264 20.8572 21.1303 20.786C21.6313 20.7519 22.1284 20.7967 22.6254 20.8525C22.7036 20.8611 22.7246 20.898 22.7225 20.966C22.7211 21.0047 22.7225 21.0438 22.7225 21.0829C22.7225 22.8031 22.7228 24.5229 22.7218 26.2431C22.7218 26.306 22.7392 26.3725 22.698 26.4404C22.4715 26.3981 22.2489 26.3299 22.0185 26.2975C20.6901 26.1112 19.4912 26.4223 18.4388 27.2511C17.5136 27.9796 16.9447 28.9368 16.7534 30.0973C16.5508 31.3276 16.8053 32.4685 17.5129 33.5025C17.5417 33.5441 17.5673 33.5885 17.5947 33.6323Z" fill="#CB1C54"/>
<path d="M33.3547 14.1309C32.8544 13.8354 32.4164 13.4617 32.0135 13.0472C30.9323 11.9346 30.2492 10.6137 29.9598 9.08984C29.9573 9.07739 29.9591 9.06388 29.9591 9.05108C30.4256 9.02441 30.8924 9.04788 31.3593 9.03864C31.4425 9.03686 31.4788 9.06957 31.4709 9.15313C31.4681 9.18513 31.4709 9.21784 31.4706 9.25055C31.4464 10.5586 31.835 11.7533 32.4722 12.8786C32.6997 13.2804 32.9724 13.6513 33.2693 14.0047C33.302 14.0431 33.3486 14.0737 33.3547 14.1309Z" fill="#CB1C54"/>
<path d="M37.5001 16.522C36.17 16.2379 34.9995 15.6381 33.9847 14.7349C33.8354 14.6023 33.6818 14.4722 33.5634 14.3079C33.6128 14.3029 33.6487 14.3332 33.6875 14.3556C34.4935 14.816 35.3564 15.1197 36.2713 15.2708C36.6283 15.3298 36.9892 15.3682 37.3529 15.365C37.504 15.3636 37.5083 15.3693 37.5083 15.5133C37.5079 15.8493 37.5033 16.1856 37.5001 16.522Z" fill="#6ABAC5"/>
</svg>
