<svg width="149" height="210" viewBox="0 0 149 210" fill="none" xmlns="http://www.w3.org/2000/svg">
<path d="M76.3559 210H73.1744C68.4022 210 64.6904 206.297 64.6904 201.537V82.5189C64.6904 77.7582 68.4022 74.0554 73.1744 74.0554H76.3559C81.1281 74.0554 84.8399 77.7582 84.8399 82.5189V201.537C84.8399 206.297 81.1281 210 76.3559 210Z" fill="#FFB026"/>
<path d="M74.2349 148.111C115.234 148.111 148.47 114.955 148.47 74.0554C148.47 33.1557 115.234 0 74.2349 0C33.2361 0 0 33.1557 0 74.0554C0 114.955 33.2361 148.111 74.2349 148.111Z" fill="#40AD50"/>
<path d="M85.3702 1.05774C98.6264 13.224 106.58 30.6799 106.58 49.7227C106.58 86.2215 76.8862 116.373 39.7688 116.373C28.1033 116.373 16.9681 113.199 7.42358 107.909C19.6193 132.242 45.0713 148.64 73.7047 148.64C115.064 148.64 147.94 115.315 147.94 74.5842C149 37.0275 121.427 6.34741 85.3702 1.05774Z" fill="#288E34"/>
</svg>
