<svg width="342" height="337" viewBox="0 0 342 337" fill="none" xmlns="http://www.w3.org/2000/svg">
<path d="M264.076 309.301V337L0 183.215V155.516L264.076 309.301Z" fill="#100F10"/>
<path d="M264.076 309.301L342 264.003L341.711 291.701L264.076 337V309.301Z" fill="#0E0D0E"/>
<path d="M0 155.516L77.924 110.217L342 264.003L264.076 309.301L0 155.516Z" fill="#666366"/>
<path d="M166.238 146.86L254.263 95.791L253.975 193.313L165.949 244.383L166.238 146.86Z" fill="#D37F05"/>
<path d="M0.288544 51.0694L88.6025 0L254.263 95.7911L166.238 146.86L0.288544 51.0694Z" fill="#E5920E"/>
<path d="M34.3444 31.4496L200.294 126.952L227.134 111.372L61.4735 15.5806L34.3444 31.4496Z" fill="#F2B65F"/>
<path d="M166.238 146.86L165.949 244.383L0.288544 148.591V51.0692L166.238 146.86Z" fill="#FFB026"/>
<path d="M63.205 126.952L42.7139 115.122L45.8885 128.106C46.7544 131.857 49.0632 135.608 51.9493 137.627V147.726L47.3316 145.129V147.726L58.5873 154.362V151.765L53.9696 149.168V139.07C56.8556 140.224 59.1645 139.358 60.0303 136.762L63.205 126.952Z" fill="#100F10"/>
<path d="M32.0353 108.775L25.1087 116.276L29.1492 118.585V130.414L34.9214 133.588V122.047L38.6733 124.067L32.0353 108.775Z" fill="#100F10"/>
<path d="M16.7391 100.119L9.81256 107.621L13.8531 109.929V121.47L19.6252 124.932V113.103L23.3771 115.411L16.7391 100.119Z" fill="#100F10"/>
<path d="M36.9416 137.627L11.5442 123.201V126.952L36.9416 141.667V137.627Z" fill="#100F10"/>
<path d="M78.2126 136.762C75.0379 135.031 72.1518 134.454 70.1315 135.031C68.1113 135.608 66.3796 137.627 66.091 141.667V141.955C66.091 141.955 68.3999 142.244 70.9974 143.398C71.8632 143.975 73.0176 144.841 73.5948 145.706C74.7493 145.995 75.9037 146.283 77.3467 146.86V160.421C77.3467 162.441 78.7898 165.038 80.81 166.192C81.3872 166.48 81.6758 166.48 81.9645 166.769C83.1189 167.057 83.9847 166.192 83.9847 164.461C83.9847 163.883 83.6961 162.729 83.6961 162.152C83.6961 161.864 83.4075 161.575 83.1189 161.287C83.1189 161.287 83.1189 161.287 82.8303 161.287H82.2531C81.9645 161.287 81.9645 161.575 81.9645 161.864C81.9645 162.441 82.2531 163.018 82.2531 163.595C82.2531 164.461 81.9645 164.749 81.3872 164.749C81.0986 164.749 81.0986 164.749 80.81 164.461C79.9442 163.883 79.0784 162.729 79.0784 161.864V148.014C80.5214 148.88 81.6758 149.746 82.8303 151.188C82.8303 151.188 82.8303 151.188 82.8303 151.477C83.6961 151.477 84.5619 151.765 85.7164 152.342C88.0252 153.785 90.3341 156.093 90.3341 156.093V155.805C90.0455 151.477 88.3138 147.726 86.2936 144.552C84.2733 141.667 81.6758 139.07 79.0784 137.627C78.7898 137.05 78.5012 137.05 78.2126 136.762Z" fill="#100F10"/>
<path d="M127.276 189.851L123.235 187.543L122.947 210.913L127.276 213.222V189.851Z" fill="#100F10"/>
<path d="M131.894 192.448L129.296 191.005V214.376L131.894 215.818V192.448Z" fill="#100F10"/>
<path d="M137.377 195.621L133.625 193.602V216.972L137.377 218.992V195.621Z" fill="#100F10"/>
<path d="M141.995 198.218L139.397 196.776V220.435L141.995 221.877V198.218Z" fill="#100F10"/>
<path d="M151.519 203.989L149.499 202.835V226.205L151.519 227.36V203.989Z" fill="#100F10"/>
<path d="M155.56 206.009L152.962 204.566V228.225L155.56 229.668V206.009Z" fill="#100F10"/>
<path d="M147.767 201.681L144.015 199.372L143.727 223.032L147.478 225.051L147.767 201.681Z" fill="#100F10"/>
<path d="M188.749 278.429C181.823 274.39 176.339 277.563 176.339 285.354C176.339 293.144 181.823 302.665 188.461 306.705C195.387 310.744 200.871 307.57 200.871 299.78C200.871 291.701 195.387 282.18 188.749 278.429Z" fill="#FDFEFF"/>
<path d="M188.749 270.062C178.071 263.714 169.124 268.908 169.124 281.314C169.124 293.721 177.782 308.725 188.461 315.072C199.139 321.42 208.086 316.226 208.086 303.82C208.086 291.413 199.428 276.409 188.749 270.062ZM188.749 306.705C181.823 302.665 176.339 293.144 176.628 285.354C176.628 277.564 182.111 274.39 189.038 278.429C195.965 282.469 201.448 291.99 201.159 299.78C200.871 307.282 195.387 310.456 188.749 306.705Z" fill="#595B5B"/>
<path d="M188.749 286.219C191.924 287.95 194.233 292.278 194.233 295.741C194.233 299.203 191.635 300.646 188.749 298.914C185.575 297.183 183.266 292.855 183.266 289.393C182.977 285.642 185.575 284.2 188.749 286.219Z" fill="#141414"/>
<path d="M220.228 293.587C220.228 293.298 220.228 293.009 220.228 292.721V292.432C220.228 292.432 220.228 292.432 220.228 292.144V291.855C220.228 291.567 220.228 291.278 220.228 290.99C220.228 290.701 220.228 290.413 220.228 290.124C220.228 289.836 220.228 289.547 219.939 289.259C219.939 288.97 219.939 288.682 219.651 288.105V287.816C219.651 287.816 219.651 287.816 219.651 287.527C219.651 287.239 219.651 287.239 219.651 286.95C219.651 286.662 219.362 286.373 219.362 285.796C219.362 285.508 219.073 285.219 219.073 284.931C219.073 284.642 218.785 284.354 218.785 284.065C218.785 283.777 218.496 283.488 218.496 283.2C218.496 283.2 218.496 283.2 218.496 282.911C218.496 282.911 218.496 282.911 218.496 282.622C218.496 282.334 218.208 282.334 218.208 282.045C218.208 281.757 217.919 281.468 217.919 281.18C217.919 280.891 217.63 280.603 217.63 280.603C217.63 280.314 217.342 280.026 217.342 279.737C217.053 279.449 217.053 279.16 216.764 278.583C216.764 278.583 216.764 278.583 216.764 278.295C216.764 278.295 216.764 278.295 216.764 278.006C216.764 277.718 216.476 277.429 216.476 277.14C216.187 276.852 216.187 276.563 215.899 276.275C215.899 275.986 215.61 275.986 215.61 275.698C215.61 275.698 215.61 275.698 215.61 275.409C215.321 275.121 215.321 274.832 215.033 274.544C214.744 274.255 214.456 273.678 214.167 273.39C214.167 273.39 214.167 273.39 214.167 273.101C213.878 272.524 213.301 271.947 213.013 271.37C212.724 271.081 212.435 270.504 212.147 270.216C211.858 269.927 211.57 269.639 211.281 269.35C210.992 269.062 210.704 268.773 210.415 268.485C210.127 268.196 209.838 267.908 209.549 267.619C209.261 267.331 209.261 267.331 208.972 267.042C208.683 266.753 208.395 266.465 208.106 266.176L207.818 265.888C207.818 265.888 207.818 265.888 207.529 265.599L207.24 265.311C205.797 264.445 205.509 264.445 205.22 264.157L204.932 263.868C204.932 263.868 204.932 263.868 204.643 263.58L204.354 263.291C204.066 263.003 203.777 262.714 203.489 262.714C203.2 262.426 203.2 262.426 202.911 262.137C202.623 261.848 202.334 261.848 202.045 261.56C201.757 261.271 201.468 261.271 201.18 260.983C201.18 260.983 201.18 260.983 200.891 260.983C200.602 260.983 200.602 260.694 200.314 260.694H200.025C200.025 260.694 199.737 260.694 199.737 260.406H199.448C199.448 260.406 199.159 260.406 199.159 260.117H198.871C198.582 260.117 198.294 259.829 198.005 259.829C197.716 259.829 197.428 259.54 197.139 259.54H196.851H196.562C196.562 259.54 196.562 259.54 196.273 259.54H195.985H195.696H195.408H195.119C195.119 259.54 195.119 259.54 194.83 259.54H194.542H194.253H193.964H193.676H193.387C193.099 259.54 193.099 259.54 192.81 259.54C192.81 259.54 192.81 259.54 192.521 259.54C192.233 259.54 192.233 259.54 191.944 259.54C191.944 259.54 191.944 259.54 191.656 259.54C191.367 259.54 191.078 259.54 190.79 259.54C190.501 259.54 189.924 259.829 189.635 259.829C189.347 259.829 189.347 259.829 189.058 260.117H188.77C188.481 260.117 188.192 260.406 187.904 260.406L173.762 268.485C174.051 268.485 174.339 268.196 174.628 268.196H174.916C175.205 268.196 175.205 267.908 175.494 267.908C175.494 267.908 175.494 267.908 175.782 267.908C176.071 267.908 176.648 267.619 176.937 267.619C177.225 267.619 177.514 267.619 177.802 267.619H178.091C178.38 267.619 178.38 267.619 178.668 267.619H178.957C179.246 267.619 179.246 267.619 179.534 267.619H179.823H180.111C180.4 267.619 180.4 267.619 180.689 267.619H180.977C181.266 267.619 181.266 267.619 181.554 267.619H181.843C182.132 267.619 182.132 267.619 182.42 267.619H182.709C182.997 267.619 182.997 267.619 183.286 267.908H183.575C183.863 267.908 184.152 268.196 184.44 268.196C184.729 268.196 185.018 268.485 185.306 268.485H185.595C185.883 268.485 185.883 268.773 186.172 268.773C186.172 268.773 186.461 268.773 186.461 269.062C186.749 269.35 187.038 269.35 187.327 269.639C187.904 269.927 188.77 270.504 189.347 270.793C189.924 271.081 190.501 271.658 191.078 272.235C191.078 272.235 191.078 272.235 191.367 272.524C191.944 273.101 192.521 273.39 193.099 273.967C193.099 273.967 193.099 273.967 193.387 274.255C193.964 274.832 194.542 275.409 195.119 275.986C195.696 276.563 196.273 277.14 196.851 277.718C197.428 278.295 198.005 279.16 198.582 279.737C199.159 280.314 199.448 280.891 200.025 281.757C200.314 282.045 200.602 282.622 200.891 282.911C201.18 283.2 201.468 283.488 201.468 284.065C201.468 284.354 201.757 284.354 201.757 284.642C202.045 285.219 202.334 285.796 202.623 286.373C202.623 286.373 202.623 286.373 202.623 286.662C202.911 287.527 203.489 288.105 203.777 288.97C204.066 289.836 204.354 290.413 204.643 291.278C204.643 291.278 204.643 291.278 204.643 291.567C204.932 292.432 205.22 293.009 205.509 293.875C205.797 294.741 205.797 295.318 206.086 296.183C206.086 296.183 206.086 296.183 206.086 296.472C206.375 297.337 206.375 297.914 206.663 298.78C206.663 299.646 206.952 300.223 206.952 301.088C206.952 301.088 206.952 301.088 206.952 301.377C206.952 302.242 206.952 302.819 206.952 303.685C206.952 304.551 206.952 305.128 206.952 305.705C206.952 305.705 206.952 305.705 206.952 305.993C206.952 306.57 206.663 307.147 206.663 307.724V308.013C206.663 308.59 206.375 309.167 206.375 309.744V310.033C206.086 310.61 206.086 310.898 205.797 311.475C205.797 311.475 205.797 311.475 205.797 311.764C205.509 312.341 205.22 312.629 204.932 313.206C204.932 313.206 204.932 313.206 204.932 313.495C204.643 313.783 204.354 314.072 204.066 314.361L203.777 314.649C203.489 314.938 203.2 315.226 202.911 315.226L202.623 315.515C202.334 315.803 201.757 316.092 201.468 316.38L215.61 308.301C215.899 308.013 216.476 307.724 216.764 307.436L217.053 307.147C217.342 306.859 217.63 306.57 217.919 306.57L218.208 306.282C218.496 305.993 218.785 305.705 219.073 305.416C219.073 305.416 219.073 305.416 219.073 305.128C219.362 304.839 219.651 304.262 219.939 303.685C219.939 303.685 219.939 303.685 219.939 303.396C219.939 303.108 220.228 302.819 220.228 302.531C220.228 302.242 220.228 302.242 220.516 301.954V301.665V301.377C220.516 301.088 220.805 300.8 220.805 300.511V300.223V299.934V299.646C220.805 299.357 220.805 299.069 220.805 298.78C220.805 298.492 220.805 298.491 220.805 298.203C220.805 298.203 220.805 298.203 220.805 297.914V297.626C220.805 297.337 220.805 297.049 220.805 296.76C220.805 296.472 220.805 296.183 220.805 295.895C220.228 294.164 220.228 293.875 220.228 293.587Z" fill="#141414"/>
<path d="M24.8202 175.713C17.8936 171.674 12.4101 174.848 12.4101 182.638C12.4101 190.428 17.8936 199.95 24.5316 203.989C31.4582 208.028 36.9417 204.855 36.9417 197.064C36.9417 188.986 31.4582 179.464 24.8202 175.713Z" fill="#FDFEFF"/>
<path d="M24.8202 167.346C14.1418 160.999 5.19492 166.192 5.19492 178.599C5.19492 191.005 13.8531 206.009 24.5316 212.356C35.2101 218.704 44.1569 213.511 44.1569 201.104C44.1569 188.697 35.4987 173.694 24.8202 167.346ZM24.5316 203.989C17.605 199.95 12.1215 190.428 12.4101 182.638C12.4101 174.848 17.8937 171.674 24.8202 175.713C31.7468 179.753 37.2304 189.274 36.9418 197.065C36.9418 204.566 31.4582 207.74 24.5316 203.989Z" fill="#595B5B"/>
<path d="M24.8202 183.504C27.9949 185.235 30.3038 189.563 30.3038 193.025C30.3038 196.487 27.7063 197.93 24.8202 196.199C21.6455 194.468 19.3367 190.14 19.3367 186.677C19.0481 182.926 21.6455 181.484 24.8202 183.504Z" fill="#141414"/>
<path d="M56.2987 190.871C56.2987 190.582 56.2987 190.294 56.2987 190.005V189.717C56.2987 189.717 56.2987 189.717 56.2987 189.428V189.14C56.2987 188.851 56.2987 188.563 56.2987 188.274C56.2987 187.986 56.2987 187.697 56.2987 187.409C56.2987 187.12 56.2987 186.831 56.0101 186.543C56.0101 186.254 56.0101 185.966 55.7215 185.389V185.1C55.7215 185.1 55.7215 185.1 55.7215 184.812C55.7215 184.523 55.7215 184.523 55.7215 184.235C55.7215 183.946 55.4329 183.658 55.4329 183.081C55.4329 182.792 55.1443 182.504 55.1443 182.215C55.1443 181.927 54.8557 181.638 54.8557 181.349C54.8557 181.061 54.5671 180.772 54.5671 180.484C54.5671 180.484 54.5671 180.484 54.5671 180.195C54.5671 180.195 54.5671 180.195 54.5671 179.907C54.5671 179.618 54.2785 179.618 54.2785 179.33C54.2785 179.041 53.9899 178.753 53.9899 178.464C53.9899 178.176 53.7013 177.887 53.7013 177.887C53.7013 177.599 53.4127 177.31 53.4127 177.022C53.1241 176.733 53.124 176.444 52.8354 175.867C52.8354 175.867 52.8354 175.867 52.8354 175.579C52.8354 175.579 52.8354 175.579 52.8354 175.29C52.8354 175.002 52.5468 174.713 52.5468 174.425C52.2582 174.136 52.2582 173.848 51.9696 173.559C51.9696 173.271 51.681 173.271 51.681 172.982C51.681 172.982 51.681 172.982 51.681 172.694C51.3924 172.405 51.3924 172.117 51.1038 171.828C50.8152 171.54 50.5266 170.962 50.238 170.674C50.238 170.674 50.238 170.674 50.238 170.385C49.9494 169.808 49.3722 169.231 49.0835 168.654C48.7949 168.366 48.5063 167.789 48.2177 167.5C47.9291 167.212 47.6405 166.923 47.3519 166.635C47.0633 166.346 46.7747 166.058 46.4861 165.769C46.1975 165.48 45.9089 165.192 45.6203 164.903C45.3316 164.615 45.3316 164.615 45.043 164.326C44.7544 164.038 44.4658 163.749 44.1772 163.461L43.8886 163.172C43.8886 163.172 43.8886 163.172 43.6 162.884L43.3114 162.595C43.0228 162.307 42.7342 162.018 42.4456 161.73L42.157 161.441C42.157 161.441 42.157 161.441 41.8684 161.153L41.5797 160.864C41.2911 160.575 41.0025 160.287 40.7139 160.287C40.4253 159.998 40.4253 159.998 40.1367 159.71C39.8481 159.421 39.5595 159.421 39.2709 159.133C38.9823 158.844 38.6937 158.844 38.4051 158.556C38.4051 158.556 38.4051 158.556 38.1165 158.556C37.8278 158.556 37.8278 158.267 37.5392 158.267H37.2506C37.2506 158.267 36.962 158.267 36.962 157.979H36.6734C36.6734 157.979 36.3848 157.979 36.3848 157.69H36.0962C35.8076 157.69 35.519 157.402 35.2304 157.402C34.9418 157.402 34.6532 157.113 34.3646 157.113H34.0759H33.7873C33.7873 157.113 33.7873 157.113 33.4987 157.113H33.2101H32.9215H32.6329H32.3443C32.3443 157.113 32.3443 157.113 32.0557 157.113H31.7671H31.4785H31.1899H30.9013H30.6127C30.324 157.113 30.324 157.113 30.0354 157.113C30.0354 157.113 30.0354 157.113 29.7468 157.113C29.4582 157.113 29.4582 157.113 29.1696 157.113C29.1696 157.113 29.1696 157.113 28.881 157.113C28.5924 157.113 28.3038 157.113 28.0152 157.113C27.7266 157.113 27.1494 157.402 26.8608 157.402C26.5721 157.402 26.5721 157.402 26.2835 157.69H25.9949C25.7063 157.69 25.4177 157.979 25.1291 157.979L10.9873 166.058C11.2759 166.058 11.5646 165.769 11.8532 165.769H12.1418C12.4304 165.769 12.4304 165.48 12.719 165.48C12.719 165.48 12.719 165.48 13.0076 165.48C13.2962 165.48 13.8734 165.192 14.162 165.192C14.4506 165.192 14.7392 165.192 15.0278 165.192H15.3164C15.6051 165.192 15.6051 165.192 15.8937 165.192H16.1823C16.4709 165.192 16.4709 165.192 16.7595 165.192H17.0481H17.3367C17.6253 165.192 17.6253 165.192 17.9139 165.192H18.2025C18.4911 165.192 18.4911 165.192 18.7797 165.192H19.0683C19.357 165.192 19.357 165.192 19.6456 165.192H19.9342C20.2228 165.192 20.2228 165.192 20.5114 165.48H20.8C21.0886 165.48 21.3772 165.769 21.6658 165.769C21.9544 165.769 22.243 166.058 22.5316 166.058H22.8202C23.1089 166.058 23.1089 166.346 23.3975 166.346C23.3975 166.346 23.6861 166.346 23.6861 166.635C22.243 166.058 22.5316 166.346 22.8202 166.346C23.3975 166.635 24.2633 167.212 24.8405 167.5C25.4177 167.789 25.9949 168.366 26.5721 168.943C26.5721 168.943 26.5721 168.943 26.8608 169.231C27.438 169.808 28.0152 170.097 28.5924 170.674C28.5924 170.674 28.5924 170.674 28.881 170.962C29.4582 171.54 30.0354 172.117 30.6127 172.694C31.1899 173.271 31.7671 173.848 32.3443 174.425C32.9215 175.002 33.4987 175.867 34.0759 176.444C34.6532 177.022 34.9418 177.599 35.519 178.464C35.8076 178.753 36.0962 179.33 36.3848 179.618C36.6734 179.907 36.962 180.195 36.962 180.772C36.962 181.061 37.2506 181.061 37.2506 181.349C37.5392 181.927 37.8278 182.504 38.1165 183.081C38.1165 183.081 38.1165 183.081 38.1165 183.369C38.4051 184.235 38.9823 184.812 39.2709 185.677C39.5595 186.543 39.8481 187.12 40.1367 187.986C40.1367 187.986 40.1367 187.986 40.1367 188.274C40.4253 189.14 40.7139 189.717 41.0025 190.582C41.2911 191.448 41.2911 192.025 41.5797 192.891C41.5797 192.891 41.5797 192.891 41.5797 193.179C41.8684 194.045 41.8684 194.622 42.157 195.487C42.157 196.353 42.4456 196.93 42.4456 197.796C42.4456 197.796 42.4456 197.796 42.4456 198.084C42.4456 198.95 42.4456 199.527 42.4456 200.392C42.4456 201.258 42.4456 201.835 42.4456 202.412C42.4456 202.412 42.4456 202.412 42.4456 202.7C42.4456 203.278 42.157 203.855 42.157 204.432V204.72C42.157 205.297 41.8684 205.874 41.8684 206.451V206.74C41.5797 207.317 41.5797 207.605 41.2911 208.182C41.2911 208.182 41.2911 208.182 41.2911 208.471C41.0025 209.048 40.7139 209.337 40.4253 209.914C40.4253 209.914 40.4253 209.914 40.4253 210.202C40.1367 210.491 39.8481 210.779 39.5595 211.068L39.2709 211.356C38.9823 211.645 38.6937 211.933 38.4051 211.933L38.1165 212.222C37.8278 212.51 37.2506 212.799 36.962 213.087L51.1038 205.009C51.3924 204.72 51.9696 204.432 52.2582 204.143L52.5468 203.855C52.8354 203.566 53.1241 203.278 53.4127 203.278L53.7013 202.989C53.9899 202.7 54.2785 202.412 54.5671 202.123C54.5671 202.123 54.5671 202.123 54.5671 201.835C54.8557 201.546 55.1443 200.969 55.4329 200.392C55.4329 200.392 55.4329 200.392 55.4329 200.104C55.4329 199.815 55.7215 199.527 55.7215 199.238C55.7215 198.95 55.7215 198.95 56.0101 198.661V198.373V198.084C56.0101 197.796 56.2987 197.507 56.2987 197.218V196.93V196.641V196.353C56.2987 196.064 56.2987 195.776 56.2987 195.487C56.2987 195.199 56.2987 195.199 56.2987 194.91C56.2987 194.91 56.2987 194.91 56.2987 194.622V194.333C56.2987 194.045 56.2987 193.756 56.2987 193.468C56.2987 193.179 56.2987 192.891 56.2987 192.602C56.2987 191.448 56.2987 191.159 56.2987 190.871Z" fill="#141414"/>
<path d="M219.919 218.415L231.175 260.829L202.602 244.383V208.605L219.919 218.415Z" fill="#0A090A"/>
<path d="M239.833 268.619L264.076 287.95V331.518L222.228 307.57L220.785 306.705C220.785 290.259 216.456 273.235 196.253 261.694L173.165 248.422V240.055L173.453 186.966L225.98 217.261L239.833 268.619Z" fill="#FF4038"/>
<path d="M202.602 244.383L231.175 260.829L219.919 218.415L202.602 208.605V244.383Z" fill="#100F10"/>
<path d="M193.656 238.901V203.989C193.656 203.7 193.367 203.123 193.078 203.123L176.628 193.602C176.339 193.313 176.051 193.602 176.051 193.89V228.802C176.051 229.091 176.339 229.668 176.628 229.668L193.078 239.189C193.367 239.189 193.656 239.189 193.656 238.901Z" fill="#100F10"/>
<path d="M239.833 268.619L317.757 223.32L342 242.652L264.076 287.95L239.833 268.619Z" fill="#FF4038"/>
<path d="M264.076 287.95L342 242.651V286.219L264.076 331.518V287.95Z" fill="#A80002"/>
<path d="M225.98 217.261L303.904 171.962L317.757 223.32L239.833 268.619L225.98 217.261Z" fill="#A80002"/>
<path d="M232.329 219.858L300.441 180.33L311.408 220.723L243.296 260.252L232.329 219.858Z" fill="#100F10"/>
<path d="M301.883 166.192C301.883 165.903 301.883 165.903 301.595 165.903V165.615C301.595 165.615 301.595 165.615 301.595 165.326V165.038V164.749C301.595 164.749 301.595 164.749 301.595 164.461L301.306 164.172C301.306 164.172 301.306 164.172 301.306 163.884L301.018 163.595C301.018 163.595 301.018 163.595 300.729 163.307C300.729 163.307 300.729 163.307 300.44 163.018C300.44 163.018 300.44 163.018 300.152 162.73C300.152 162.73 300.152 162.73 299.863 162.441C299.863 162.441 299.863 162.441 299.575 162.152C299.575 162.152 299.575 162.152 299.286 161.864C299.286 161.864 299.286 161.864 298.997 161.575C298.997 161.575 298.997 161.575 298.709 161.287C298.709 161.287 298.709 161.287 298.42 160.998C298.42 160.998 298.42 160.998 298.132 160.998C298.132 160.998 298.132 160.998 297.843 160.998C297.843 160.998 297.843 160.998 297.554 160.998C297.554 160.998 297.554 160.998 297.266 160.998L255.129 136.762C255.129 136.762 255.129 136.762 254.84 136.762C254.84 136.762 254.84 136.762 254.552 136.762C254.552 136.762 254.552 136.762 254.263 136.762C254.263 136.762 254.263 136.762 253.975 136.762C253.975 136.762 253.975 136.762 253.686 136.762C253.686 136.762 253.686 136.762 253.397 136.762C253.397 136.762 253.397 136.762 253.109 136.762C253.109 136.762 253.109 136.762 252.82 136.762C252.82 136.762 252.82 136.762 252.532 136.762H252.243H251.954H251.666C251.666 136.762 251.377 136.762 251.377 137.051L173.453 182.349H173.742C172.587 182.638 172.01 183.792 172.01 185.523V187.254L224.537 217.55L302.461 172.251L301.883 166.192Z" fill="#FF4038"/>
<path d="M278.506 290.836C273.6 293.721 269.848 300.357 269.848 305.839C269.848 311.321 273.889 313.629 278.506 310.744C283.413 307.859 287.165 301.223 287.165 295.741C287.165 290.259 283.413 287.95 278.506 290.836Z" fill="#F9C023"/>
<path d="M272.446 304.397C272.446 299.204 275.909 292.856 280.527 289.682C279.949 289.971 279.372 290.259 278.506 290.548C273.6 293.433 269.848 300.069 269.848 305.551C269.848 311.033 273.889 313.341 278.506 310.456C278.795 310.456 279.084 310.168 279.084 309.879C275.332 311.61 272.446 309.302 272.446 304.397Z" fill="#F7AB26"/>
<path d="M329.301 261.406C324.395 264.291 320.643 270.927 320.643 276.409C320.643 281.891 324.683 284.2 329.301 281.314C334.208 278.429 337.959 271.793 337.959 266.311C338.248 260.829 334.208 258.521 329.301 261.406Z" fill="#F9C023"/>
<path d="M323.24 274.967C323.24 269.774 326.704 263.426 331.321 260.252C330.744 260.541 330.167 260.83 329.301 261.118C324.395 264.003 320.643 270.639 320.643 276.121C320.643 281.603 324.683 283.912 329.301 281.026C329.59 281.026 329.878 280.738 329.878 280.449C326.127 282.18 323.24 279.872 323.24 274.967Z" fill="#F7AB26"/>
<path d="M328.147 290.547V304.685L292.071 325.459L291.782 311.321L328.147 290.547Z" fill="#595B5B"/>
<path d="M292.071 325.459L289.185 324.016V309.878L291.782 311.321L292.071 325.459Z" fill="#070707"/>
<path d="M291.782 311.321L289.185 309.878L325.549 288.816L328.147 290.547L291.782 311.321Z" fill="#0C0B0C"/>
</svg>
