<svg width="48" height="48" viewBox="0 0 48 48" fill="none" xmlns="http://www.w3.org/2000/svg">
<path d="M24 48C37.2548 48 48 37.2548 48 24C48 10.7452 37.2548 0 24 0C10.7452 0 0 10.7452 0 24C0 37.2548 10.7452 48 24 48Z" fill="#5A99EC"/>
<path d="M19.1506 37.8223C30.8725 37.8223 37.2828 28.111 37.2828 19.6901C37.2828 19.4141 37.2772 19.1393 37.2647 18.8662C38.5088 17.9667 39.5908 16.8445 40.4441 15.5667C39.302 16.0737 38.0732 16.4157 36.7844 16.5697C38.0999 15.7807 39.1104 14.5324 39.5868 13.0444C38.3552 13.7743 36.992 14.3052 35.5403 14.5914C34.3772 13.3526 32.7211 12.5779 30.8885 12.5779C27.3689 12.5779 24.5148 15.4319 24.5148 18.9501C24.5148 19.4504 24.571 19.9368 24.6802 20.4033C19.3838 20.137 14.6873 17.6008 11.5445 13.7452C10.9966 14.6867 10.6816 15.7811 10.6816 16.948C10.6816 19.1592 11.8066 21.1109 13.5175 22.2525C12.4722 22.2205 11.4901 21.9333 10.6311 21.4554C10.6297 21.4821 10.6297 21.5087 10.6297 21.5368C10.6297 24.6234 12.8267 27.2001 15.7426 27.7846C15.2075 27.9304 14.6439 28.0086 14.0626 28.0086C13.6519 28.0086 13.2526 27.9681 12.8647 27.8938C13.6761 30.4257 16.0284 32.2682 18.8181 32.3201C16.6364 34.0296 13.8891 35.0479 10.9031 35.0479C10.389 35.0479 9.8816 35.0184 9.38275 34.9597C12.2023 36.7674 15.5509 37.8223 19.1506 37.8223Z" fill="white"/>
</svg>
