<svg width="48" height="48" viewBox="0 0 48 48" fill="none" xmlns="http://www.w3.org/2000/svg">
<path d="M48 24C48 10.7452 37.2548 0 24 0C10.7452 0 0 10.7452 0 24C0 35.979 8.77653 45.9079 20.25 47.7084V30.9376H14.1561V24H20.25V18.7125C20.25 12.6976 23.8329 9.37493 29.3152 9.37493C31.941 9.37493 34.6876 9.84356 34.6876 9.84356V15.7497H31.6612C28.6798 15.7497 27.75 17.5996 27.75 19.4976V24H34.4064L33.3422 30.9376H27.75V47.7084C39.2235 45.9079 48 35.979 48 24Z" fill="#4676ED"/>
<path d="M33.3422 30.9377L34.4064 24.0001H27.75V19.498C27.75 17.6001 28.6798 15.7501 31.6611 15.7501H34.6876V9.84362C34.6876 9.84362 31.941 9.375 29.3152 9.375C23.8332 9.375 20.2499 12.6973 20.2499 18.7126V24.0001H14.1561V30.9377H20.2499V47.7085C21.472 47.9001 22.7243 48.0001 24 48.0001C25.2757 48.0001 26.528 47.9001 27.75 47.7085V30.9377H33.3422Z" fill="white"/>
</svg>
