<svg width="296" height="150" viewBox="0 0 296 150" fill="none" xmlns="http://www.w3.org/2000/svg">
<path d="M9.6 43.48C7.008 43.48 5.024 42.744 3.648 41.272C2.272 39.8 1.584 37.72 1.584 35.032V17.368C1.584 14.68 2.272 12.6 3.648 11.128C5.024 9.656 7.008 8.92 9.6 8.92C12.192 8.92 14.176 9.656 15.552 11.128C16.928 12.6 17.616 14.68 17.616 17.368V35.032C17.616 37.72 16.928 39.8 15.552 41.272C14.176 42.744 12.192 43.48 9.6 43.48ZM9.6 38.68C11.424 38.68 12.336 37.576 12.336 35.368V17.032C12.336 14.824 11.424 13.72 9.6 13.72C7.776 13.72 6.864 14.824 6.864 17.032V35.368C6.864 37.576 7.776 38.68 9.6 38.68ZM28.6748 43.48C26.0828 43.48 24.1148 42.76 22.7708 41.32C21.4588 39.88 20.8027 37.816 20.8027 35.128V32.392H25.7948V35.368C25.7948 37.576 26.7068 38.68 28.5308 38.68C29.4268 38.68 30.0988 38.408 30.5468 37.864C31.0268 37.288 31.2668 36.296 31.2668 34.888V32.152C31.2668 30.616 30.9948 29.528 30.4508 28.888C29.9068 28.216 29.0268 27.88 27.8108 27.88H26.0348V23.08H27.9548C29.0108 23.08 29.7948 22.808 30.3068 22.264C30.8508 21.72 31.1228 20.808 31.1228 19.528V17.08C31.1228 15.928 30.8828 15.08 30.4028 14.536C29.9228 13.992 29.2828 13.72 28.4828 13.72C26.7868 13.72 25.9388 14.76 25.9388 16.84V19.048H20.9468V17.272C20.9468 14.584 21.6028 12.52 22.9148 11.08C24.2588 9.64 26.1788 8.92 28.6748 8.92C31.2028 8.92 33.1228 9.64 34.4348 11.08C35.7468 12.488 36.4028 14.536 36.4028 17.224V18.424C36.4028 20.248 36.0988 21.72 35.4908 22.84C34.8828 23.928 33.9388 24.712 32.6588 25.192V25.288C34.0348 25.8 35.0268 26.632 35.6348 27.784C36.2428 28.936 36.5468 30.408 36.5468 32.2V35.176C36.5468 37.864 35.8748 39.928 34.5308 41.368C33.2188 42.776 31.2668 43.48 28.6748 43.48Z" fill="#BABABA" fill-opacity="0.6"/>
<path d="M17.7793 38.4912V43H15.1426V30.2031H20.1348C21.0957 30.2031 21.9395 30.3789 22.666 30.7305C23.3984 31.082 23.9609 31.583 24.3535 32.2334C24.7461 32.8779 24.9424 33.6133 24.9424 34.4395C24.9424 35.6934 24.5117 36.6836 23.6504 37.4102C22.7949 38.1309 21.6084 38.4912 20.0908 38.4912H17.7793ZM17.7793 36.3555H20.1348C20.832 36.3555 21.3623 36.1914 21.7256 35.8633C22.0947 35.5352 22.2793 35.0664 22.2793 34.457C22.2793 33.8301 22.0947 33.3232 21.7256 32.9365C21.3564 32.5498 20.8467 32.3506 20.1963 32.3389H17.7793V36.3555ZM32.29 42.0332C31.6631 42.7949 30.7959 43.1758 29.6885 43.1758C28.6689 43.1758 27.8896 42.8828 27.3506 42.2969C26.8174 41.7109 26.5449 40.8525 26.5332 39.7217V33.4902H29.0732V39.6338C29.0732 40.624 29.5244 41.1191 30.4268 41.1191C31.2881 41.1191 31.8799 40.8203 32.2021 40.2227V33.4902H34.751V43H32.3604L32.29 42.0332ZM45.2363 38.333C45.2363 39.8564 44.9111 41.0459 44.2607 41.9014C43.6104 42.751 42.7021 43.1758 41.5361 43.1758C40.5049 43.1758 39.6816 42.7803 39.0664 41.9893L38.9521 43H36.667V29.5H39.207V34.3428C39.793 33.6572 40.5635 33.3145 41.5186 33.3145C42.6787 33.3145 43.5869 33.7422 44.2432 34.5977C44.9053 35.4473 45.2363 36.6455 45.2363 38.1924V38.333ZM42.6963 38.1484C42.6963 37.1875 42.5439 36.4873 42.2393 36.0479C41.9346 35.6025 41.4805 35.3799 40.877 35.3799C40.0684 35.3799 39.5117 35.7109 39.207 36.373V40.126C39.5176 40.7939 40.0801 41.1279 40.8945 41.1279C41.7148 41.1279 42.2539 40.7236 42.5117 39.915C42.6348 39.5283 42.6963 38.9395 42.6963 38.1484ZM49.4902 43H46.9414V29.5H49.4902V43ZM54.2715 43H51.7227V33.4902H54.2715V43ZM51.5732 31.0293C51.5732 30.6484 51.6992 30.335 51.9512 30.0889C52.209 29.8428 52.5576 29.7197 52.9971 29.7197C53.4307 29.7197 53.7764 29.8428 54.0342 30.0889C54.292 30.335 54.4209 30.6484 54.4209 31.0293C54.4209 31.416 54.2891 31.7324 54.0254 31.9785C53.7676 32.2246 53.4248 32.3477 52.9971 32.3477C52.5693 32.3477 52.2236 32.2246 51.96 31.9785C51.7021 31.7324 51.5732 31.416 51.5732 31.0293ZM61.5225 40.3721C61.5225 40.0615 61.3672 39.8184 61.0566 39.6426C60.752 39.4609 60.2598 39.2998 59.5801 39.1592C57.3184 38.6846 56.1875 37.7236 56.1875 36.2764C56.1875 35.4326 56.5361 34.7295 57.2334 34.167C57.9365 33.5986 58.8535 33.3145 59.9844 33.3145C61.1914 33.3145 62.1553 33.5986 62.876 34.167C63.6025 34.7354 63.9658 35.4736 63.9658 36.3818H61.4258C61.4258 36.0186 61.3086 35.7197 61.0742 35.4854C60.8398 35.2451 60.4736 35.125 59.9756 35.125C59.5479 35.125 59.2168 35.2217 58.9824 35.415C58.748 35.6084 58.6309 35.8545 58.6309 36.1533C58.6309 36.4346 58.7627 36.6631 59.0264 36.8389C59.2959 37.0088 59.7471 37.1582 60.3799 37.2871C61.0127 37.4102 61.5459 37.5508 61.9795 37.709C63.3213 38.2012 63.9922 39.0537 63.9922 40.2666C63.9922 41.1338 63.6201 41.8369 62.876 42.376C62.1318 42.9092 61.1709 43.1758 59.9932 43.1758C59.1963 43.1758 58.4873 43.0352 57.8662 42.7539C57.251 42.4668 56.7676 42.0771 56.416 41.585C56.0645 41.0869 55.8887 40.5508 55.8887 39.9766H58.2969C58.3203 40.4277 58.4873 40.7734 58.7979 41.0137C59.1084 41.2539 59.5244 41.374 60.0459 41.374C60.5322 41.374 60.8984 41.2832 61.1445 41.1016C61.3965 40.9141 61.5225 40.6709 61.5225 40.3721ZM68.1143 34.5273C68.7881 33.7188 69.6348 33.3145 70.6543 33.3145C72.7168 33.3145 73.7627 34.5127 73.792 36.9092V43H71.252V36.9795C71.252 36.4346 71.1348 36.0332 70.9004 35.7754C70.666 35.5117 70.2764 35.3799 69.7314 35.3799C68.9873 35.3799 68.4482 35.667 68.1143 36.2412V43H65.5742V29.5H68.1143V34.5273ZM82.8711 43H80.3223V33.4902H82.8711V43ZM80.1729 31.0293C80.1729 30.6484 80.2988 30.335 80.5508 30.0889C80.8086 29.8428 81.1572 29.7197 81.5967 29.7197C82.0303 29.7197 82.376 29.8428 82.6338 30.0889C82.8916 30.335 83.0205 30.6484 83.0205 31.0293C83.0205 31.416 82.8887 31.7324 82.625 31.9785C82.3672 32.2246 82.0244 32.3477 81.5967 32.3477C81.1689 32.3477 80.8232 32.2246 80.5596 31.9785C80.3018 31.7324 80.1729 31.416 80.1729 31.0293ZM88.0127 31.1523V33.4902H89.6387V35.3535H88.0127V40.0996C88.0127 40.4512 88.0801 40.7031 88.2148 40.8555C88.3496 41.0078 88.6074 41.084 88.9883 41.084C89.2695 41.084 89.5186 41.0635 89.7354 41.0225V42.9473C89.2373 43.0996 88.7246 43.1758 88.1973 43.1758C86.416 43.1758 85.5078 42.2764 85.4727 40.4775V35.3535H84.084V33.4902H85.4727V31.1523H88.0127Z" fill="#F3E0E0"/>
<path d="M22.0322 71.127H18.833V80H17.5273V71.127H14.335V70.0469H22.0322V71.127ZM24.5752 73.499C25.1357 72.8109 25.8649 72.4668 26.7627 72.4668C28.3258 72.4668 29.1143 73.3486 29.1279 75.1123V80H27.8633V75.1055C27.8587 74.5723 27.7357 74.1781 27.4941 73.9229C27.2572 73.6676 26.8857 73.54 26.3799 73.54C25.9697 73.54 25.6097 73.6494 25.2998 73.8682C24.9899 74.0869 24.7484 74.374 24.5752 74.7295V80H23.3105V69.5H24.5752V73.499ZM34.0908 80.1367C33.0882 80.1367 32.2725 79.8086 31.6436 79.1523C31.0146 78.4915 30.7002 77.6097 30.7002 76.5068V76.2744C30.7002 75.5407 30.8392 74.8867 31.1172 74.3125C31.3997 73.7337 31.7917 73.2826 32.293 72.959C32.7988 72.6309 33.3457 72.4668 33.9336 72.4668C34.8952 72.4668 35.6426 72.7835 36.1758 73.417C36.709 74.0505 36.9756 74.9574 36.9756 76.1377V76.6641H31.9648C31.9831 77.3932 32.195 77.9834 32.6006 78.4346C33.0107 78.8812 33.5303 79.1045 34.1592 79.1045C34.6058 79.1045 34.984 79.0133 35.2939 78.8311C35.6038 78.6488 35.875 78.4072 36.1074 78.1064L36.8799 78.708C36.2601 79.6605 35.3304 80.1367 34.0908 80.1367ZM33.9336 73.5059C33.4232 73.5059 32.9948 73.6927 32.6484 74.0664C32.3021 74.4355 32.0879 74.9551 32.0059 75.625H35.7109V75.5293C35.6745 74.8867 35.5013 74.39 35.1914 74.0391C34.8815 73.6836 34.4622 73.5059 33.9336 73.5059ZM42.0205 73.7383C41.8291 73.7064 41.6217 73.6904 41.3984 73.6904C40.569 73.6904 40.0062 74.0436 39.71 74.75V80H38.4453V72.6035H39.6758L39.6963 73.458C40.111 72.7972 40.6989 72.4668 41.46 72.4668C41.7061 72.4668 41.8929 72.4987 42.0205 72.5625V73.7383ZM46.1221 80.1367C45.1195 80.1367 44.3037 79.8086 43.6748 79.1523C43.0459 78.4915 42.7314 77.6097 42.7314 76.5068V76.2744C42.7314 75.5407 42.8704 74.8867 43.1484 74.3125C43.431 73.7337 43.8229 73.2826 44.3242 72.959C44.8301 72.6309 45.377 72.4668 45.9648 72.4668C46.9264 72.4668 47.6738 72.7835 48.207 73.417C48.7402 74.0505 49.0068 74.9574 49.0068 76.1377V76.6641H43.9961C44.0143 77.3932 44.2262 77.9834 44.6318 78.4346C45.042 78.8812 45.5615 79.1045 46.1904 79.1045C46.637 79.1045 47.0153 79.0133 47.3252 78.8311C47.6351 78.6488 47.9062 78.4072 48.1387 78.1064L48.9111 78.708C48.2913 79.6605 47.3617 80.1367 46.1221 80.1367ZM45.9648 73.5059C45.4544 73.5059 45.026 73.6927 44.6797 74.0664C44.3333 74.4355 44.1191 74.9551 44.0371 75.625H47.7422V75.5293C47.7057 74.8867 47.5326 74.39 47.2227 74.0391C46.9128 73.6836 46.4935 73.5059 45.9648 73.5059ZM58.5156 80C58.4427 79.8542 58.3835 79.5944 58.3379 79.2207C57.75 79.8314 57.0482 80.1367 56.2324 80.1367C55.5033 80.1367 54.904 79.9316 54.4346 79.5215C53.9697 79.1068 53.7373 78.5827 53.7373 77.9492C53.7373 77.179 54.029 76.582 54.6123 76.1582C55.2002 75.7298 56.0251 75.5156 57.0869 75.5156H58.3174V74.9346C58.3174 74.4925 58.1852 74.1416 57.9209 73.8818C57.6566 73.6175 57.2669 73.4854 56.752 73.4854C56.3008 73.4854 55.9225 73.5993 55.6172 73.8271C55.3118 74.055 55.1592 74.3307 55.1592 74.6543H53.8877C53.8877 74.2852 54.0176 73.9297 54.2773 73.5879C54.5417 73.2415 54.8971 72.9681 55.3438 72.7676C55.7949 72.5671 56.2894 72.4668 56.8271 72.4668C57.6794 72.4668 58.347 72.681 58.8301 73.1094C59.3132 73.5332 59.5638 74.1188 59.582 74.8662V78.2705C59.582 78.9495 59.6686 79.4896 59.8418 79.8906V80H58.5156ZM56.417 79.0361C56.8135 79.0361 57.1895 78.9336 57.5449 78.7285C57.9004 78.5234 58.1579 78.2568 58.3174 77.9287V76.4111H57.3262C55.7767 76.4111 55.002 76.8646 55.002 77.7715C55.002 78.168 55.1341 78.4779 55.3984 78.7012C55.6628 78.9245 56.0023 79.0361 56.417 79.0361ZM65.1396 73.7383C64.9482 73.7064 64.7409 73.6904 64.5176 73.6904C63.6882 73.6904 63.1253 74.0436 62.8291 74.75V80H61.5645V72.6035H62.7949L62.8154 73.458C63.2301 72.7972 63.818 72.4668 64.5791 72.4668C64.8252 72.4668 65.012 72.4987 65.1396 72.5625V73.7383ZM69.2412 80.1367C68.2386 80.1367 67.4229 79.8086 66.7939 79.1523C66.165 78.4915 65.8506 77.6097 65.8506 76.5068V76.2744C65.8506 75.5407 65.9896 74.8867 66.2676 74.3125C66.5501 73.7337 66.9421 73.2826 67.4434 72.959C67.9492 72.6309 68.4961 72.4668 69.084 72.4668C70.0456 72.4668 70.793 72.7835 71.3262 73.417C71.8594 74.0505 72.126 74.9574 72.126 76.1377V76.6641H67.1152C67.1335 77.3932 67.3454 77.9834 67.751 78.4346C68.1611 78.8812 68.6807 79.1045 69.3096 79.1045C69.7562 79.1045 70.1344 79.0133 70.4443 78.8311C70.7542 78.6488 71.0254 78.4072 71.2578 78.1064L72.0303 78.708C71.4105 79.6605 70.4808 80.1367 69.2412 80.1367ZM69.084 73.5059C68.5736 73.5059 68.1452 73.6927 67.7988 74.0664C67.4525 74.4355 67.2383 74.9551 67.1562 75.625H70.8613V75.5293C70.8249 74.8867 70.6517 74.39 70.3418 74.0391C70.0319 73.6836 69.6126 73.5059 69.084 73.5059ZM78.2578 72.6035L78.292 73.4238C78.8343 72.7858 79.5658 72.4668 80.4863 72.4668C81.5208 72.4668 82.2249 72.8633 82.5986 73.6562C82.8447 73.3008 83.1637 73.0137 83.5557 72.7949C83.9521 72.5762 84.4193 72.4668 84.957 72.4668C86.5794 72.4668 87.4043 73.3258 87.4316 75.0439V80H86.167V75.1191C86.167 74.5905 86.0462 74.1963 85.8047 73.9365C85.5632 73.6722 85.1576 73.54 84.5879 73.54C84.1185 73.54 83.7288 73.6813 83.4189 73.9639C83.109 74.2419 82.929 74.6178 82.8789 75.0918V80H81.6074V75.1533C81.6074 74.0778 81.0811 73.54 80.0283 73.54C79.1989 73.54 78.6315 73.8932 78.3262 74.5996V80H77.0615V72.6035H78.2578ZM93.9121 80C93.8392 79.8542 93.7799 79.5944 93.7344 79.2207C93.1465 79.8314 92.4447 80.1367 91.6289 80.1367C90.8997 80.1367 90.3005 79.9316 89.8311 79.5215C89.3662 79.1068 89.1338 78.5827 89.1338 77.9492C89.1338 77.179 89.4255 76.582 90.0088 76.1582C90.5967 75.7298 91.4215 75.5156 92.4834 75.5156H93.7139V74.9346C93.7139 74.4925 93.5817 74.1416 93.3174 73.8818C93.0531 73.6175 92.6634 73.4854 92.1484 73.4854C91.6973 73.4854 91.319 73.5993 91.0137 73.8271C90.7083 74.055 90.5557 74.3307 90.5557 74.6543H89.2842C89.2842 74.2852 89.4141 73.9297 89.6738 73.5879C89.9382 73.2415 90.2936 72.9681 90.7402 72.7676C91.1914 72.5671 91.6859 72.4668 92.2236 72.4668C93.0758 72.4668 93.7435 72.681 94.2266 73.1094C94.7096 73.5332 94.9603 74.1188 94.9785 74.8662V78.2705C94.9785 78.9495 95.0651 79.4896 95.2383 79.8906V80H93.9121ZM91.8135 79.0361C92.21 79.0361 92.5859 78.9336 92.9414 78.7285C93.2969 78.5234 93.5544 78.2568 93.7139 77.9287V76.4111H92.7227C91.1732 76.4111 90.3984 76.8646 90.3984 77.7715C90.3984 78.168 90.5306 78.4779 90.7949 78.7012C91.0592 78.9245 91.3988 79.0361 91.8135 79.0361ZM98.1572 72.6035L98.1982 73.5332C98.7633 72.8223 99.5016 72.4668 100.413 72.4668C101.976 72.4668 102.765 73.3486 102.778 75.1123V80H101.514V75.1055C101.509 74.5723 101.386 74.1781 101.145 73.9229C100.908 73.6676 100.536 73.54 100.03 73.54C99.6201 73.54 99.2601 73.6494 98.9502 73.8682C98.6403 74.0869 98.3988 74.374 98.2256 74.7295V80H96.9609V72.6035H98.1572ZM107.105 78.1475L108.828 72.6035H110.182L107.208 81.1416C106.748 82.3721 106.016 82.9873 105.014 82.9873L104.774 82.9668L104.303 82.8779V81.8525L104.645 81.8799C105.073 81.8799 105.406 81.7933 105.643 81.6201C105.884 81.4469 106.082 81.1302 106.237 80.6699L106.518 79.918L103.879 72.6035H105.26L107.105 78.1475ZM117.229 78.2842L119.062 72.6035H120.354L117.701 80H116.737L114.058 72.6035H115.35L117.229 78.2842ZM126.027 80C125.954 79.8542 125.895 79.5944 125.85 79.2207C125.262 79.8314 124.56 80.1367 123.744 80.1367C123.015 80.1367 122.416 79.9316 121.946 79.5215C121.481 79.1068 121.249 78.5827 121.249 77.9492C121.249 77.179 121.541 76.582 122.124 76.1582C122.712 75.7298 123.537 75.5156 124.599 75.5156H125.829V74.9346C125.829 74.4925 125.697 74.1416 125.433 73.8818C125.168 73.6175 124.779 73.4854 124.264 73.4854C123.812 73.4854 123.434 73.5993 123.129 73.8271C122.824 74.055 122.671 74.3307 122.671 74.6543H121.399C121.399 74.2852 121.529 73.9297 121.789 73.5879C122.053 73.2415 122.409 72.9681 122.855 72.7676C123.307 72.5671 123.801 72.4668 124.339 72.4668C125.191 72.4668 125.859 72.681 126.342 73.1094C126.825 73.5332 127.076 74.1188 127.094 74.8662V78.2705C127.094 78.9495 127.18 79.4896 127.354 79.8906V80H126.027ZM123.929 79.0361C124.325 79.0361 124.701 78.9336 125.057 78.7285C125.412 78.5234 125.67 78.2568 125.829 77.9287V76.4111H124.838C123.288 76.4111 122.514 76.8646 122.514 77.7715C122.514 78.168 122.646 78.4779 122.91 78.7012C123.174 78.9245 123.514 79.0361 123.929 79.0361ZM132.651 73.7383C132.46 73.7064 132.253 73.6904 132.029 73.6904C131.2 73.6904 130.637 74.0436 130.341 74.75V80H129.076V72.6035H130.307L130.327 73.458C130.742 72.7972 131.33 72.4668 132.091 72.4668C132.337 72.4668 132.524 72.4987 132.651 72.5625V73.7383ZM135.194 80H133.93V72.6035H135.194V80ZM133.827 70.6416C133.827 70.4365 133.889 70.2633 134.012 70.1221C134.139 69.9808 134.326 69.9102 134.572 69.9102C134.818 69.9102 135.005 69.9808 135.133 70.1221C135.26 70.2633 135.324 70.4365 135.324 70.6416C135.324 70.8467 135.26 71.0176 135.133 71.1543C135.005 71.291 134.818 71.3594 134.572 71.3594C134.326 71.3594 134.139 71.291 134.012 71.1543C133.889 71.0176 133.827 70.8467 133.827 70.6416ZM141.791 80C141.718 79.8542 141.659 79.5944 141.613 79.2207C141.025 79.8314 140.324 80.1367 139.508 80.1367C138.779 80.1367 138.179 79.9316 137.71 79.5215C137.245 79.1068 137.013 78.5827 137.013 77.9492C137.013 77.179 137.304 76.582 137.888 76.1582C138.476 75.7298 139.3 75.5156 140.362 75.5156H141.593V74.9346C141.593 74.4925 141.461 74.1416 141.196 73.8818C140.932 73.6175 140.542 73.4854 140.027 73.4854C139.576 73.4854 139.198 73.5993 138.893 73.8271C138.587 74.055 138.435 74.3307 138.435 74.6543H137.163C137.163 74.2852 137.293 73.9297 137.553 73.5879C137.817 73.2415 138.173 72.9681 138.619 72.7676C139.07 72.5671 139.565 72.4668 140.103 72.4668C140.955 72.4668 141.622 72.681 142.105 73.1094C142.589 73.5332 142.839 74.1188 142.857 74.8662V78.2705C142.857 78.9495 142.944 79.4896 143.117 79.8906V80H141.791ZM139.692 79.0361C140.089 79.0361 140.465 78.9336 140.82 78.7285C141.176 78.5234 141.433 78.2568 141.593 77.9287V76.4111H140.602C139.052 76.4111 138.277 76.8646 138.277 77.7715C138.277 78.168 138.41 78.4779 138.674 78.7012C138.938 78.9245 139.278 79.0361 139.692 79.0361ZM146.556 70.8125V72.6035H147.937V73.5811H146.556V78.168C146.556 78.4642 146.617 78.6875 146.74 78.8379C146.863 78.9837 147.073 79.0566 147.369 79.0566C147.515 79.0566 147.715 79.0293 147.971 78.9746V80C147.638 80.0911 147.314 80.1367 147 80.1367C146.435 80.1367 146.009 79.9658 145.722 79.624C145.435 79.2822 145.291 78.7969 145.291 78.168V73.5811H143.944V72.6035H145.291V70.8125H146.556ZM150.794 80H149.529V72.6035H150.794V80ZM149.427 70.6416C149.427 70.4365 149.488 70.2633 149.611 70.1221C149.739 69.9808 149.926 69.9102 150.172 69.9102C150.418 69.9102 150.605 69.9808 150.732 70.1221C150.86 70.2633 150.924 70.4365 150.924 70.6416C150.924 70.8467 150.86 71.0176 150.732 71.1543C150.605 71.291 150.418 71.3594 150.172 71.3594C149.926 71.3594 149.739 71.291 149.611 71.1543C149.488 71.0176 149.427 70.8467 149.427 70.6416ZM152.489 76.2334C152.489 75.5088 152.631 74.8571 152.913 74.2783C153.2 73.6995 153.597 73.2529 154.103 72.9385C154.613 72.624 155.194 72.4668 155.846 72.4668C156.853 72.4668 157.666 72.8154 158.286 73.5127C158.91 74.21 159.223 75.1374 159.223 76.2949V76.3838C159.223 77.1038 159.084 77.751 158.806 78.3252C158.532 78.8949 158.138 79.3392 157.623 79.6582C157.113 79.9772 156.525 80.1367 155.859 80.1367C154.857 80.1367 154.043 79.7881 153.419 79.0908C152.799 78.3936 152.489 77.4707 152.489 76.3223V76.2334ZM153.761 76.3838C153.761 77.2041 153.95 77.8626 154.328 78.3594C154.711 78.8561 155.221 79.1045 155.859 79.1045C156.502 79.1045 157.012 78.8538 157.391 78.3525C157.769 77.8467 157.958 77.1403 157.958 76.2334C157.958 75.4222 157.764 74.766 157.377 74.2646C156.994 73.7588 156.484 73.5059 155.846 73.5059C155.221 73.5059 154.718 73.7542 154.335 74.251C153.952 74.7477 153.761 75.4587 153.761 76.3838ZM162.005 72.6035L162.046 73.5332C162.611 72.8223 163.349 72.4668 164.261 72.4668C165.824 72.4668 166.612 73.3486 166.626 75.1123V80H165.361V75.1055C165.357 74.5723 165.234 74.1781 164.992 73.9229C164.755 73.6676 164.384 73.54 163.878 73.54C163.468 73.54 163.108 73.6494 162.798 73.8682C162.488 74.0869 162.246 74.374 162.073 74.7295V80H160.809V72.6035H162.005ZM172.84 78.0381C172.84 77.6963 172.71 77.432 172.45 77.2451C172.195 77.0537 171.746 76.8896 171.104 76.7529C170.465 76.6162 169.957 76.4521 169.579 76.2607C169.205 76.0693 168.927 75.8415 168.745 75.5771C168.567 75.3128 168.479 74.9984 168.479 74.6338C168.479 74.0277 168.734 73.515 169.244 73.0957C169.759 72.6764 170.415 72.4668 171.213 72.4668C172.051 72.4668 172.73 72.6833 173.25 73.1162C173.774 73.5492 174.036 74.1029 174.036 74.7773H172.765C172.765 74.431 172.617 74.1325 172.32 73.8818C172.029 73.6312 171.66 73.5059 171.213 73.5059C170.753 73.5059 170.393 73.6061 170.133 73.8066C169.873 74.0072 169.743 74.2692 169.743 74.5928C169.743 74.8981 169.864 75.1283 170.105 75.2832C170.347 75.4382 170.782 75.5863 171.411 75.7275C172.045 75.8688 172.557 76.0374 172.949 76.2334C173.341 76.4294 173.631 76.6663 173.817 76.9443C174.009 77.2178 174.104 77.5527 174.104 77.9492C174.104 78.61 173.84 79.141 173.312 79.542C172.783 79.9385 172.097 80.1367 171.254 80.1367C170.661 80.1367 170.137 80.0319 169.682 79.8223C169.226 79.6126 168.868 79.321 168.608 78.9473C168.353 78.569 168.226 78.1611 168.226 77.7236H169.49C169.513 78.1475 169.682 78.4847 169.996 78.7354C170.315 78.9814 170.734 79.1045 171.254 79.1045C171.732 79.1045 172.115 79.0088 172.402 78.8174C172.694 78.6214 172.84 78.3617 172.84 78.0381ZM178.89 76.2334C178.89 75.5088 179.031 74.8571 179.313 74.2783C179.601 73.6995 179.997 73.2529 180.503 72.9385C181.013 72.624 181.594 72.4668 182.246 72.4668C183.253 72.4668 184.067 72.8154 184.687 73.5127C185.311 74.21 185.623 75.1374 185.623 76.2949V76.3838C185.623 77.1038 185.484 77.751 185.206 78.3252C184.933 78.8949 184.538 79.3392 184.023 79.6582C183.513 79.9772 182.925 80.1367 182.26 80.1367C181.257 80.1367 180.444 79.7881 179.819 79.0908C179.2 78.3936 178.89 77.4707 178.89 76.3223V76.2334ZM180.161 76.3838C180.161 77.2041 180.35 77.8626 180.729 78.3594C181.111 78.8561 181.622 79.1045 182.26 79.1045C182.902 79.1045 183.413 78.8538 183.791 78.3525C184.169 77.8467 184.358 77.1403 184.358 76.2334C184.358 75.4222 184.165 74.766 183.777 74.2646C183.395 73.7588 182.884 73.5059 182.246 73.5059C181.622 73.5059 181.118 73.7542 180.735 74.251C180.353 74.7477 180.161 75.4587 180.161 76.3838ZM187.831 80V73.5811H186.662V72.6035H187.831V71.8447C187.831 71.0518 188.043 70.4388 188.467 70.0059C188.891 69.5729 189.49 69.3564 190.265 69.3564C190.556 69.3564 190.846 69.3952 191.133 69.4727L191.064 70.498C190.85 70.457 190.622 70.4365 190.381 70.4365C189.971 70.4365 189.654 70.5573 189.431 70.7988C189.207 71.0358 189.096 71.3776 189.096 71.8242V72.6035H190.675V73.5811H189.096V80H187.831ZM201.797 76.3838C201.797 77.5094 201.539 78.4163 201.024 79.1045C200.509 79.7926 199.812 80.1367 198.933 80.1367C198.035 80.1367 197.328 79.8519 196.813 79.2822V82.8438H195.549V72.6035H196.704L196.766 73.4238C197.281 72.7858 197.996 72.4668 198.912 72.4668C199.801 72.4668 200.503 72.8018 201.018 73.4717C201.537 74.1416 201.797 75.0736 201.797 76.2676V76.3838ZM200.532 76.2402C200.532 75.4062 200.354 74.7477 199.999 74.2646C199.644 73.7816 199.156 73.54 198.536 73.54C197.771 73.54 197.196 73.8796 196.813 74.5586V78.0928C197.192 78.7673 197.771 79.1045 198.55 79.1045C199.156 79.1045 199.637 78.8652 199.992 78.3867C200.352 77.9036 200.532 77.1882 200.532 76.2402ZM207.977 80C207.904 79.8542 207.844 79.5944 207.799 79.2207C207.211 79.8314 206.509 80.1367 205.693 80.1367C204.964 80.1367 204.365 79.9316 203.896 79.5215C203.431 79.1068 203.198 78.5827 203.198 77.9492C203.198 77.179 203.49 76.582 204.073 76.1582C204.661 75.7298 205.486 75.5156 206.548 75.5156H207.778V74.9346C207.778 74.4925 207.646 74.1416 207.382 73.8818C207.118 73.6175 206.728 73.4854 206.213 73.4854C205.762 73.4854 205.383 73.5993 205.078 73.8271C204.773 74.055 204.62 74.3307 204.62 74.6543H203.349C203.349 74.2852 203.479 73.9297 203.738 73.5879C204.003 73.2415 204.358 72.9681 204.805 72.7676C205.256 72.5671 205.75 72.4668 206.288 72.4668C207.14 72.4668 207.808 72.681 208.291 73.1094C208.774 73.5332 209.025 74.1188 209.043 74.8662V78.2705C209.043 78.9495 209.13 79.4896 209.303 79.8906V80H207.977ZM205.878 79.0361C206.274 79.0361 206.65 78.9336 207.006 78.7285C207.361 78.5234 207.619 78.2568 207.778 77.9287V76.4111H206.787C205.238 76.4111 204.463 76.8646 204.463 77.7715C204.463 78.168 204.595 78.4779 204.859 78.7012C205.124 78.9245 205.463 79.0361 205.878 79.0361ZM215.332 78.0381C215.332 77.6963 215.202 77.432 214.942 77.2451C214.687 77.0537 214.238 76.8896 213.596 76.7529C212.958 76.6162 212.45 76.4521 212.071 76.2607C211.698 76.0693 211.42 75.8415 211.237 75.5771C211.06 75.3128 210.971 74.9984 210.971 74.6338C210.971 74.0277 211.226 73.515 211.736 73.0957C212.251 72.6764 212.908 72.4668 213.705 72.4668C214.544 72.4668 215.223 72.6833 215.742 73.1162C216.266 73.5492 216.528 74.1029 216.528 74.7773H215.257C215.257 74.431 215.109 74.1325 214.812 73.8818C214.521 73.6312 214.152 73.5059 213.705 73.5059C213.245 73.5059 212.885 73.6061 212.625 73.8066C212.365 74.0072 212.235 74.2692 212.235 74.5928C212.235 74.8981 212.356 75.1283 212.598 75.2832C212.839 75.4382 213.274 75.5863 213.903 75.7275C214.537 75.8688 215.049 76.0374 215.441 76.2334C215.833 76.4294 216.123 76.6663 216.31 76.9443C216.501 77.2178 216.597 77.5527 216.597 77.9492C216.597 78.61 216.332 79.141 215.804 79.542C215.275 79.9385 214.589 80.1367 213.746 80.1367C213.154 80.1367 212.63 80.0319 212.174 79.8223C211.718 79.6126 211.36 79.321 211.101 78.9473C210.845 78.569 210.718 78.1611 210.718 77.7236H211.982C212.005 78.1475 212.174 78.4847 212.488 78.7354C212.807 78.9814 213.227 79.1045 213.746 79.1045C214.225 79.1045 214.607 79.0088 214.895 78.8174C215.186 78.6214 215.332 78.3617 215.332 78.0381ZM222.551 78.0381C222.551 77.6963 222.421 77.432 222.161 77.2451C221.906 77.0537 221.457 76.8896 220.814 76.7529C220.176 76.6162 219.668 76.4521 219.29 76.2607C218.916 76.0693 218.638 75.8415 218.456 75.5771C218.278 75.3128 218.189 74.9984 218.189 74.6338C218.189 74.0277 218.445 73.515 218.955 73.0957C219.47 72.6764 220.126 72.4668 220.924 72.4668C221.762 72.4668 222.441 72.6833 222.961 73.1162C223.485 73.5492 223.747 74.1029 223.747 74.7773H222.476C222.476 74.431 222.327 74.1325 222.031 73.8818C221.74 73.6312 221.37 73.5059 220.924 73.5059C220.464 73.5059 220.104 73.6061 219.844 73.8066C219.584 74.0072 219.454 74.2692 219.454 74.5928C219.454 74.8981 219.575 75.1283 219.816 75.2832C220.058 75.4382 220.493 75.5863 221.122 75.7275C221.756 75.8688 222.268 76.0374 222.66 76.2334C223.052 76.4294 223.341 76.6663 223.528 76.9443C223.72 77.2178 223.815 77.5527 223.815 77.9492C223.815 78.61 223.551 79.141 223.022 79.542C222.494 79.9385 221.808 80.1367 220.965 80.1367C220.372 80.1367 219.848 80.0319 219.393 79.8223C218.937 79.6126 218.579 79.321 218.319 78.9473C218.064 78.569 217.937 78.1611 217.937 77.7236H219.201C219.224 78.1475 219.393 78.4847 219.707 78.7354C220.026 78.9814 220.445 79.1045 220.965 79.1045C221.443 79.1045 221.826 79.0088 222.113 78.8174C222.405 78.6214 222.551 78.3617 222.551 78.0381ZM230.029 80C229.956 79.8542 229.897 79.5944 229.852 79.2207C229.264 79.8314 228.562 80.1367 227.746 80.1367C227.017 80.1367 226.418 79.9316 225.948 79.5215C225.483 79.1068 225.251 78.5827 225.251 77.9492C225.251 77.179 225.543 76.582 226.126 76.1582C226.714 75.7298 227.539 75.5156 228.601 75.5156H229.831V74.9346C229.831 74.4925 229.699 74.1416 229.435 73.8818C229.17 73.6175 228.781 73.4854 228.266 73.4854C227.814 73.4854 227.436 73.5993 227.131 73.8271C226.826 74.055 226.673 74.3307 226.673 74.6543H225.401C225.401 74.2852 225.531 73.9297 225.791 73.5879C226.055 73.2415 226.411 72.9681 226.857 72.7676C227.309 72.5671 227.803 72.4668 228.341 72.4668C229.193 72.4668 229.861 72.681 230.344 73.1094C230.827 73.5332 231.077 74.1188 231.096 74.8662V78.2705C231.096 78.9495 231.182 79.4896 231.355 79.8906V80H230.029ZM227.931 79.0361C228.327 79.0361 228.703 78.9336 229.059 78.7285C229.414 78.5234 229.672 78.2568 229.831 77.9287V76.4111H228.84C227.29 76.4111 226.516 76.8646 226.516 77.7715C226.516 78.168 226.648 78.4779 226.912 78.7012C227.176 78.9245 227.516 79.0361 227.931 79.0361ZM232.777 76.2402C232.777 75.0872 233.044 74.1712 233.577 73.4922C234.11 72.8086 234.817 72.4668 235.696 72.4668C236.599 72.4668 237.303 72.7858 237.809 73.4238L237.87 72.6035H239.025V79.8223C239.025 80.7793 238.741 81.5335 238.171 82.085C237.606 82.6364 236.845 82.9121 235.888 82.9121C235.354 82.9121 234.833 82.7982 234.322 82.5703C233.812 82.3424 233.422 82.0303 233.153 81.6338L233.81 80.875C234.352 81.5449 235.015 81.8799 235.799 81.8799C236.414 81.8799 236.893 81.7067 237.234 81.3604C237.581 81.014 237.754 80.5264 237.754 79.8975V79.2617C237.248 79.8451 236.558 80.1367 235.683 80.1367C234.817 80.1367 234.115 79.7881 233.577 79.0908C233.044 78.3936 232.777 77.4434 232.777 76.2402ZM234.049 76.3838C234.049 77.2178 234.22 77.874 234.562 78.3525C234.903 78.8265 235.382 79.0635 235.997 79.0635C236.795 79.0635 237.38 78.7012 237.754 77.9766V74.5996C237.367 73.8932 236.785 73.54 236.011 73.54C235.396 73.54 234.915 73.7793 234.568 74.2578C234.222 74.7363 234.049 75.445 234.049 76.3838ZM244.009 80.1367C243.006 80.1367 242.19 79.8086 241.562 79.1523C240.933 78.4915 240.618 77.6097 240.618 76.5068V76.2744C240.618 75.5407 240.757 74.8867 241.035 74.3125C241.318 73.7337 241.71 73.2826 242.211 72.959C242.717 72.6309 243.264 72.4668 243.852 72.4668C244.813 72.4668 245.561 72.7835 246.094 73.417C246.627 74.0505 246.894 74.9574 246.894 76.1377V76.6641H241.883C241.901 77.3932 242.113 77.9834 242.519 78.4346C242.929 78.8812 243.448 79.1045 244.077 79.1045C244.524 79.1045 244.902 79.0133 245.212 78.8311C245.522 78.6488 245.793 78.4072 246.025 78.1064L246.798 78.708C246.178 79.6605 245.248 80.1367 244.009 80.1367ZM243.852 73.5059C243.341 73.5059 242.913 73.6927 242.566 74.0664C242.22 74.4355 242.006 74.9551 241.924 75.625H245.629V75.5293C245.592 74.8867 245.419 74.39 245.109 74.0391C244.799 73.6836 244.38 73.5059 243.852 73.5059ZM252.67 78.0381C252.67 77.6963 252.54 77.432 252.28 77.2451C252.025 77.0537 251.576 76.8896 250.934 76.7529C250.296 76.6162 249.787 76.4521 249.409 76.2607C249.035 76.0693 248.757 75.8415 248.575 75.5771C248.397 75.3128 248.309 74.9984 248.309 74.6338C248.309 74.0277 248.564 73.515 249.074 73.0957C249.589 72.6764 250.245 72.4668 251.043 72.4668C251.882 72.4668 252.561 72.6833 253.08 73.1162C253.604 73.5492 253.866 74.1029 253.866 74.7773H252.595C252.595 74.431 252.447 74.1325 252.15 73.8818C251.859 73.6312 251.49 73.5059 251.043 73.5059C250.583 73.5059 250.223 73.6061 249.963 73.8066C249.703 74.0072 249.573 74.2692 249.573 74.5928C249.573 74.8981 249.694 75.1283 249.936 75.2832C250.177 75.4382 250.612 75.5863 251.241 75.7275C251.875 75.8688 252.387 76.0374 252.779 76.2334C253.171 76.4294 253.461 76.6663 253.647 76.9443C253.839 77.2178 253.935 77.5527 253.935 77.9492C253.935 78.61 253.67 79.141 253.142 79.542C252.613 79.9385 251.927 80.1367 251.084 80.1367C250.492 80.1367 249.967 80.0319 249.512 79.8223C249.056 79.6126 248.698 79.321 248.438 78.9473C248.183 78.569 248.056 78.1611 248.056 77.7236H249.32C249.343 78.1475 249.512 78.4847 249.826 78.7354C250.145 78.9814 250.564 79.1045 251.084 79.1045C251.562 79.1045 251.945 79.0088 252.232 78.8174C252.524 78.6214 252.67 78.3617 252.67 78.0381ZM258.72 76.2334C258.72 75.5088 258.861 74.8571 259.144 74.2783C259.431 73.6995 259.827 73.2529 260.333 72.9385C260.843 72.624 261.424 72.4668 262.076 72.4668C263.083 72.4668 263.897 72.8154 264.517 73.5127C265.141 74.21 265.453 75.1374 265.453 76.2949V76.3838C265.453 77.1038 265.314 77.751 265.036 78.3252C264.763 78.8949 264.368 79.3392 263.854 79.6582C263.343 79.9772 262.755 80.1367 262.09 80.1367C261.087 80.1367 260.274 79.7881 259.649 79.0908C259.03 78.3936 258.72 77.4707 258.72 76.3223V76.2334ZM259.991 76.3838C259.991 77.2041 260.18 77.8626 260.559 78.3594C260.941 78.8561 261.452 79.1045 262.09 79.1045C262.732 79.1045 263.243 78.8538 263.621 78.3525C263.999 77.8467 264.188 77.1403 264.188 76.2334C264.188 75.4222 263.995 74.766 263.607 74.2646C263.225 73.7588 262.714 73.5059 262.076 73.5059C261.452 73.5059 260.948 73.7542 260.565 74.251C260.183 74.7477 259.991 75.4587 259.991 76.3838ZM267.661 80V73.5811H266.492V72.6035H267.661V71.8447C267.661 71.0518 267.873 70.4388 268.297 70.0059C268.721 69.5729 269.32 69.3564 270.095 69.3564C270.386 69.3564 270.676 69.3952 270.963 69.4727L270.895 70.498C270.68 70.457 270.452 70.4365 270.211 70.4365C269.801 70.4365 269.484 70.5573 269.261 70.7988C269.037 71.0358 268.926 71.3776 268.926 71.8242V72.6035H270.505V73.5811H268.926V80H267.661ZM16.4746 94.9268H21.1914V96H15.1553V86.0469H16.4746V94.9268ZM22.1553 92.2334C22.1553 91.5088 22.2965 90.8571 22.5791 90.2783C22.8662 89.6995 23.2627 89.2529 23.7686 88.9385C24.279 88.624 24.86 88.4668 25.5117 88.4668C26.5189 88.4668 27.3324 88.8154 27.9521 89.5127C28.5765 90.21 28.8887 91.1374 28.8887 92.2949V92.3838C28.8887 93.1038 28.7497 93.751 28.4717 94.3252C28.1982 94.8949 27.804 95.3392 27.2891 95.6582C26.7786 95.9772 26.1908 96.1367 25.5254 96.1367C24.5228 96.1367 23.7093 95.7881 23.085 95.0908C22.4652 94.3936 22.1553 93.4707 22.1553 92.3223V92.2334ZM23.4268 92.3838C23.4268 93.2041 23.6159 93.8626 23.9941 94.3594C24.377 94.8561 24.8874 95.1045 25.5254 95.1045C26.168 95.1045 26.6784 94.8538 27.0566 94.3525C27.4349 93.8467 27.624 93.1403 27.624 92.2334C27.624 91.4222 27.4303 90.766 27.043 90.2646C26.6602 89.7588 26.1497 89.5059 25.5117 89.5059C24.8874 89.5059 24.3838 89.7542 24.001 90.251C23.6182 90.7477 23.4268 91.4587 23.4268 92.3838ZM34.0498 89.7383C33.8584 89.7064 33.651 89.6904 33.4277 89.6904C32.5983 89.6904 32.0355 90.0436 31.7393 90.75V96H30.4746V88.6035H31.7051L31.7256 89.458C32.1403 88.7972 32.7282 88.4668 33.4893 88.4668C33.7354 88.4668 33.9222 88.4987 34.0498 88.5625V89.7383ZM38.1514 96.1367C37.1488 96.1367 36.333 95.8086 35.7041 95.1523C35.0752 94.4915 34.7607 93.6097 34.7607 92.5068V92.2744C34.7607 91.5407 34.8997 90.8867 35.1777 90.3125C35.4603 89.7337 35.8522 89.2826 36.3535 88.959C36.8594 88.6309 37.4062 88.4668 37.9941 88.4668C38.9557 88.4668 39.7031 88.7835 40.2363 89.417C40.7695 90.0505 41.0361 90.9574 41.0361 92.1377V92.6641H36.0254C36.0436 93.3932 36.2555 93.9834 36.6611 94.4346C37.0713 94.8812 37.5908 95.1045 38.2197 95.1045C38.6663 95.1045 39.0446 95.0133 39.3545 94.8311C39.6644 94.6488 39.9355 94.4072 40.168 94.1064L40.9404 94.708C40.3206 95.6605 39.391 96.1367 38.1514 96.1367ZM37.9941 89.5059C37.4837 89.5059 37.0553 89.6927 36.709 90.0664C36.3626 90.4355 36.1484 90.9551 36.0664 91.625H39.7715V91.5293C39.735 90.8867 39.5618 90.39 39.252 90.0391C38.9421 89.6836 38.5228 89.5059 37.9941 89.5059ZM43.6953 88.6035L43.7295 89.4238C44.2718 88.7858 45.0033 88.4668 45.9238 88.4668C46.9583 88.4668 47.6624 88.8633 48.0361 89.6562C48.2822 89.3008 48.6012 89.0137 48.9932 88.7949C49.3896 88.5762 49.8568 88.4668 50.3945 88.4668C52.0169 88.4668 52.8418 89.3258 52.8691 91.0439V96H51.6045V91.1191C51.6045 90.5905 51.4837 90.1963 51.2422 89.9365C51.0007 89.6722 50.5951 89.54 50.0254 89.54C49.556 89.54 49.1663 89.6813 48.8564 89.9639C48.5465 90.2419 48.3665 90.6178 48.3164 91.0918V96H47.0449V91.1533C47.0449 90.0778 46.5186 89.54 45.4658 89.54C44.6364 89.54 44.069 89.8932 43.7637 90.5996V96H42.499V88.6035H43.6953ZM59.8623 96H58.5498V86.0469H59.8623V96ZM68.3184 92.3838C68.3184 93.5094 68.0609 94.4163 67.5459 95.1045C67.0309 95.7926 66.3337 96.1367 65.4541 96.1367C64.5563 96.1367 63.8499 95.8519 63.335 95.2822V98.8438H62.0703V88.6035H63.2256L63.2871 89.4238C63.8021 88.7858 64.5176 88.4668 65.4336 88.4668C66.3223 88.4668 67.0241 88.8018 67.5391 89.4717C68.0586 90.1416 68.3184 91.0736 68.3184 92.2676V92.3838ZM67.0537 92.2402C67.0537 91.4062 66.876 90.7477 66.5205 90.2646C66.165 89.7816 65.6774 89.54 65.0576 89.54C64.292 89.54 63.7178 89.8796 63.335 90.5586V94.0928C63.7132 94.7673 64.292 95.1045 65.0713 95.1045C65.6774 95.1045 66.1582 94.8652 66.5137 94.3867C66.8737 93.9036 67.0537 93.1882 67.0537 92.2402ZM74.2383 94.0381C74.2383 93.6963 74.1084 93.432 73.8486 93.2451C73.5934 93.0537 73.1445 92.8896 72.502 92.7529C71.8639 92.6162 71.3558 92.4521 70.9775 92.2607C70.6038 92.0693 70.3258 91.8415 70.1436 91.5771C69.9658 91.3128 69.877 90.9984 69.877 90.6338C69.877 90.0277 70.1322 89.515 70.6426 89.0957C71.1576 88.6764 71.8138 88.4668 72.6113 88.4668C73.4499 88.4668 74.1289 88.6833 74.6484 89.1162C75.1725 89.5492 75.4346 90.1029 75.4346 90.7773H74.1631C74.1631 90.431 74.015 90.1325 73.7188 89.8818C73.4271 89.6312 73.0579 89.5059 72.6113 89.5059C72.151 89.5059 71.791 89.6061 71.5312 89.8066C71.2715 90.0072 71.1416 90.2692 71.1416 90.5928C71.1416 90.8981 71.2624 91.1283 71.5039 91.2832C71.7454 91.4382 72.1807 91.5863 72.8096 91.7275C73.443 91.8688 73.9557 92.0374 74.3477 92.2334C74.7396 92.4294 75.029 92.6663 75.2158 92.9443C75.4072 93.2178 75.5029 93.5527 75.5029 93.9492C75.5029 94.61 75.2386 95.141 74.71 95.542C74.1813 95.9385 73.4954 96.1367 72.6523 96.1367C72.0599 96.1367 71.5358 96.0319 71.0801 95.8223C70.6243 95.6126 70.2666 95.321 70.0068 94.9473C69.7516 94.569 69.624 94.1611 69.624 93.7236H70.8887C70.9115 94.1475 71.0801 94.4847 71.3945 94.7354C71.7135 94.9814 72.1328 95.1045 72.6523 95.1045C73.1309 95.1045 73.5137 95.0088 73.8008 94.8174C74.0924 94.6214 74.2383 94.3617 74.2383 94.0381ZM81.7168 95.2686C81.2246 95.8473 80.5023 96.1367 79.5498 96.1367C78.7614 96.1367 78.1598 95.9089 77.7451 95.4531C77.335 94.9928 77.1276 94.3138 77.123 93.416V88.6035H78.3877V93.3818C78.3877 94.5029 78.8434 95.0635 79.7549 95.0635C80.721 95.0635 81.3636 94.7035 81.6826 93.9834V88.6035H82.9473V96H81.7441L81.7168 95.2686ZM86.0645 88.6035L86.0986 89.4238C86.641 88.7858 87.3724 88.4668 88.293 88.4668C89.3275 88.4668 90.0316 88.8633 90.4053 89.6562C90.6514 89.3008 90.9704 89.0137 91.3623 88.7949C91.7588 88.5762 92.2259 88.4668 92.7637 88.4668C94.3861 88.4668 95.2109 89.3258 95.2383 91.0439V96H93.9736V91.1191C93.9736 90.5905 93.8529 90.1963 93.6113 89.9365C93.3698 89.6722 92.9642 89.54 92.3945 89.54C91.9251 89.54 91.5355 89.6813 91.2256 89.9639C90.9157 90.2419 90.7357 90.6178 90.6855 91.0918V96H89.4141V91.1533C89.4141 90.0778 88.8877 89.54 87.835 89.54C87.0055 89.54 86.4382 89.8932 86.1328 90.5996V96H84.8682V88.6035H86.0645ZM105.191 96C105.118 95.8542 105.059 95.5944 105.014 95.2207C104.426 95.8314 103.724 96.1367 102.908 96.1367C102.179 96.1367 101.58 95.9316 101.11 95.5215C100.646 95.1068 100.413 94.5827 100.413 93.9492C100.413 93.179 100.705 92.582 101.288 92.1582C101.876 91.7298 102.701 91.5156 103.763 91.5156H104.993V90.9346C104.993 90.4925 104.861 90.1416 104.597 89.8818C104.332 89.6175 103.943 89.4854 103.428 89.4854C102.977 89.4854 102.598 89.5993 102.293 89.8271C101.988 90.055 101.835 90.3307 101.835 90.6543H100.563C100.563 90.2852 100.693 89.9297 100.953 89.5879C101.217 89.2415 101.573 88.9681 102.02 88.7676C102.471 88.5671 102.965 88.4668 103.503 88.4668C104.355 88.4668 105.023 88.681 105.506 89.1094C105.989 89.5332 106.24 90.1188 106.258 90.8662V94.2705C106.258 94.9495 106.344 95.4896 106.518 95.8906V96H105.191ZM103.093 95.0361C103.489 95.0361 103.865 94.9336 104.221 94.7285C104.576 94.5234 104.834 94.2568 104.993 93.9287V92.4111H104.002C102.452 92.4111 101.678 92.8646 101.678 93.7715C101.678 94.168 101.81 94.4779 102.074 94.7012C102.339 94.9245 102.678 95.0361 103.093 95.0361ZM110.571 94.2842L112.403 88.6035H113.695L111.043 96H110.079L107.399 88.6035H108.691L110.571 94.2842ZM119.369 96C119.296 95.8542 119.237 95.5944 119.191 95.2207C118.604 95.8314 117.902 96.1367 117.086 96.1367C116.357 96.1367 115.757 95.9316 115.288 95.5215C114.823 95.1068 114.591 94.5827 114.591 93.9492C114.591 93.179 114.882 92.582 115.466 92.1582C116.054 91.7298 116.879 91.5156 117.94 91.5156H119.171V90.9346C119.171 90.4925 119.039 90.1416 118.774 89.8818C118.51 89.6175 118.12 89.4854 117.605 89.4854C117.154 89.4854 116.776 89.5993 116.471 89.8271C116.165 90.055 116.013 90.3307 116.013 90.6543H114.741C114.741 90.2852 114.871 89.9297 115.131 89.5879C115.395 89.2415 115.751 88.9681 116.197 88.7676C116.648 88.5671 117.143 88.4668 117.681 88.4668C118.533 88.4668 119.201 88.681 119.684 89.1094C120.167 89.5332 120.417 90.1188 120.436 90.8662V94.2705C120.436 94.9495 120.522 95.4896 120.695 95.8906V96H119.369ZM117.271 95.0361C117.667 95.0361 118.043 94.9336 118.398 94.7285C118.754 94.5234 119.011 94.2568 119.171 93.9287V92.4111H118.18C116.63 92.4111 115.855 92.8646 115.855 93.7715C115.855 94.168 115.988 94.4779 116.252 94.7012C116.516 94.9245 116.856 95.0361 117.271 95.0361ZM123.792 96H122.527V88.6035H123.792V96ZM122.425 86.6416C122.425 86.4365 122.486 86.2633 122.609 86.1221C122.737 85.9808 122.924 85.9102 123.17 85.9102C123.416 85.9102 123.603 85.9808 123.73 86.1221C123.858 86.2633 123.922 86.4365 123.922 86.6416C123.922 86.8467 123.858 87.0176 123.73 87.1543C123.603 87.291 123.416 87.3594 123.17 87.3594C122.924 87.3594 122.737 87.291 122.609 87.1543C122.486 87.0176 122.425 86.8467 122.425 86.6416ZM127.196 96H125.932V85.5H127.196V96ZM133.793 96C133.72 95.8542 133.661 95.5944 133.615 95.2207C133.027 95.8314 132.326 96.1367 131.51 96.1367C130.781 96.1367 130.181 95.9316 129.712 95.5215C129.247 95.1068 129.015 94.5827 129.015 93.9492C129.015 93.179 129.306 92.582 129.89 92.1582C130.478 91.7298 131.302 91.5156 132.364 91.5156H133.595V90.9346C133.595 90.4925 133.463 90.1416 133.198 89.8818C132.934 89.6175 132.544 89.4854 132.029 89.4854C131.578 89.4854 131.2 89.5993 130.895 89.8271C130.589 90.055 130.437 90.3307 130.437 90.6543H129.165C129.165 90.2852 129.295 89.9297 129.555 89.5879C129.819 89.2415 130.174 88.9681 130.621 88.7676C131.072 88.5671 131.567 88.4668 132.104 88.4668C132.957 88.4668 133.624 88.681 134.107 89.1094C134.59 89.5332 134.841 90.1188 134.859 90.8662V94.2705C134.859 94.9495 134.946 95.4896 135.119 95.8906V96H133.793ZM131.694 95.0361C132.091 95.0361 132.467 94.9336 132.822 94.7285C133.178 94.5234 133.435 94.2568 133.595 93.9287V92.4111H132.604C131.054 92.4111 130.279 92.8646 130.279 93.7715C130.279 94.168 130.411 94.4779 130.676 94.7012C130.94 94.9245 131.28 95.0361 131.694 95.0361ZM143.104 92.3838C143.104 93.514 142.844 94.4232 142.324 95.1113C141.805 95.7949 141.107 96.1367 140.232 96.1367C139.298 96.1367 138.576 95.8063 138.065 95.1455L138.004 96H136.842V85.5H138.106V89.417C138.617 88.7835 139.321 88.4668 140.219 88.4668C141.117 88.4668 141.821 88.8063 142.331 89.4854C142.846 90.1644 143.104 91.0941 143.104 92.2744V92.3838ZM141.839 92.2402C141.839 91.3789 141.673 90.7135 141.34 90.2441C141.007 89.7747 140.529 89.54 139.904 89.54C139.07 89.54 138.471 89.9274 138.106 90.7021V93.9014C138.494 94.6761 139.098 95.0635 139.918 95.0635C140.524 95.0635 140.996 94.8288 141.333 94.3594C141.67 93.89 141.839 93.1836 141.839 92.2402ZM146.077 96H144.812V85.5H146.077V96ZM151.177 96.1367C150.174 96.1367 149.358 95.8086 148.729 95.1523C148.101 94.4915 147.786 93.6097 147.786 92.5068V92.2744C147.786 91.5407 147.925 90.8867 148.203 90.3125C148.486 89.7337 148.878 89.2826 149.379 88.959C149.885 88.6309 150.432 88.4668 151.02 88.4668C151.981 88.4668 152.729 88.7835 153.262 89.417C153.795 90.0505 154.062 90.9574 154.062 92.1377V92.6641H149.051C149.069 93.3932 149.281 93.9834 149.687 94.4346C150.097 94.8812 150.616 95.1045 151.245 95.1045C151.692 95.1045 152.07 95.0133 152.38 94.8311C152.69 94.6488 152.961 94.4072 153.193 94.1064L153.966 94.708C153.346 95.6605 152.416 96.1367 151.177 96.1367ZM151.02 89.5059C150.509 89.5059 150.081 89.6927 149.734 90.0664C149.388 90.4355 149.174 90.9551 149.092 91.625H152.797V91.5293C152.76 90.8867 152.587 90.39 152.277 90.0391C151.967 89.6836 151.548 89.5059 151.02 89.5059ZM155.49 97.9824L154.772 97.4902C155.201 96.8932 155.424 96.278 155.442 95.6445V94.5029H156.68V95.4941C156.68 95.9544 156.566 96.4147 156.338 96.875C156.115 97.3353 155.832 97.7044 155.49 97.9824ZM168.014 92.3838C168.014 93.514 167.754 94.4232 167.234 95.1113C166.715 95.7949 166.018 96.1367 165.143 96.1367C164.208 96.1367 163.486 95.8063 162.976 95.1455L162.914 96H161.752V85.5H163.017V89.417C163.527 88.7835 164.231 88.4668 165.129 88.4668C166.027 88.4668 166.731 88.8063 167.241 89.4854C167.756 90.1644 168.014 91.0941 168.014 92.2744V92.3838ZM166.749 92.2402C166.749 91.3789 166.583 90.7135 166.25 90.2441C165.917 89.7747 165.439 89.54 164.814 89.54C163.98 89.54 163.381 89.9274 163.017 90.7021V93.9014C163.404 94.6761 164.008 95.0635 164.828 95.0635C165.434 95.0635 165.906 94.8288 166.243 94.3594C166.58 93.89 166.749 93.1836 166.749 92.2402ZM174.18 95.2686C173.688 95.8473 172.965 96.1367 172.013 96.1367C171.224 96.1367 170.623 95.9089 170.208 95.4531C169.798 94.9928 169.59 94.3138 169.586 93.416V88.6035H170.851V93.3818C170.851 94.5029 171.306 95.0635 172.218 95.0635C173.184 95.0635 173.826 94.7035 174.146 93.9834V88.6035H175.41V96H174.207L174.18 95.2686ZM179.054 86.8125V88.6035H180.435V89.5811H179.054V94.168C179.054 94.4642 179.115 94.6875 179.238 94.8379C179.361 94.9837 179.571 95.0566 179.867 95.0566C180.013 95.0566 180.214 95.0293 180.469 94.9746V96C180.136 96.0911 179.812 96.1367 179.498 96.1367C178.933 96.1367 178.507 95.9658 178.22 95.624C177.933 95.2822 177.789 94.7969 177.789 94.168V89.5811H176.442V88.6035H177.789V86.8125H179.054ZM187.106 86.8125V88.6035H188.487V89.5811H187.106V94.168C187.106 94.4642 187.168 94.6875 187.291 94.8379C187.414 94.9837 187.624 95.0566 187.92 95.0566C188.066 95.0566 188.266 95.0293 188.521 94.9746V96C188.189 96.0911 187.865 96.1367 187.551 96.1367C186.986 96.1367 186.56 95.9658 186.272 95.624C185.985 95.2822 185.842 94.7969 185.842 94.168V89.5811H184.495V88.6035H185.842V86.8125H187.106ZM191.235 89.499C191.796 88.8109 192.525 88.4668 193.423 88.4668C194.986 88.4668 195.774 89.3486 195.788 91.1123V96H194.523V91.1055C194.519 90.5723 194.396 90.1781 194.154 89.9229C193.917 89.6676 193.546 89.54 193.04 89.54C192.63 89.54 192.27 89.6494 191.96 89.8682C191.65 90.0869 191.409 90.374 191.235 90.7295V96H189.971V85.5H191.235V89.499ZM200.751 96.1367C199.748 96.1367 198.933 95.8086 198.304 95.1523C197.675 94.4915 197.36 93.6097 197.36 92.5068V92.2744C197.36 91.5407 197.499 90.8867 197.777 90.3125C198.06 89.7337 198.452 89.2826 198.953 88.959C199.459 88.6309 200.006 88.4668 200.594 88.4668C201.555 88.4668 202.303 88.7835 202.836 89.417C203.369 90.0505 203.636 90.9574 203.636 92.1377V92.6641H198.625C198.643 93.3932 198.855 93.9834 199.261 94.4346C199.671 94.8812 200.19 95.1045 200.819 95.1045C201.266 95.1045 201.644 95.0133 201.954 94.8311C202.264 94.6488 202.535 94.4072 202.768 94.1064L203.54 94.708C202.92 95.6605 201.991 96.1367 200.751 96.1367ZM200.594 89.5059C200.083 89.5059 199.655 89.6927 199.309 90.0664C198.962 90.4355 198.748 90.9551 198.666 91.625H202.371V91.5293C202.335 90.8867 202.161 90.39 201.852 90.0391C201.542 89.6836 201.122 89.5059 200.594 89.5059ZM209.768 88.6035L209.802 89.4238C210.344 88.7858 211.076 88.4668 211.996 88.4668C213.031 88.4668 213.735 88.8633 214.108 89.6562C214.354 89.3008 214.674 89.0137 215.065 88.7949C215.462 88.5762 215.929 88.4668 216.467 88.4668C218.089 88.4668 218.914 89.3258 218.941 91.0439V96H217.677V91.1191C217.677 90.5905 217.556 90.1963 217.314 89.9365C217.073 89.6722 216.667 89.54 216.098 89.54C215.628 89.54 215.239 89.6813 214.929 89.9639C214.619 90.2419 214.439 90.6178 214.389 91.0918V96H213.117V91.1533C213.117 90.0778 212.591 89.54 211.538 89.54C210.709 89.54 210.141 89.8932 209.836 90.5996V96H208.571V88.6035H209.768ZM225.422 96C225.349 95.8542 225.29 95.5944 225.244 95.2207C224.656 95.8314 223.954 96.1367 223.139 96.1367C222.41 96.1367 221.81 95.9316 221.341 95.5215C220.876 95.1068 220.644 94.5827 220.644 93.9492C220.644 93.179 220.935 92.582 221.519 92.1582C222.106 91.7298 222.931 91.5156 223.993 91.5156H225.224V90.9346C225.224 90.4925 225.091 90.1416 224.827 89.8818C224.563 89.6175 224.173 89.4854 223.658 89.4854C223.207 89.4854 222.829 89.5993 222.523 89.8271C222.218 90.055 222.065 90.3307 222.065 90.6543H220.794C220.794 90.2852 220.924 89.9297 221.184 89.5879C221.448 89.2415 221.803 88.9681 222.25 88.7676C222.701 88.5671 223.196 88.4668 223.733 88.4668C224.586 88.4668 225.253 88.681 225.736 89.1094C226.219 89.5332 226.47 90.1188 226.488 90.8662V94.2705C226.488 94.9495 226.575 95.4896 226.748 95.8906V96H225.422ZM223.323 95.0361C223.72 95.0361 224.096 94.9336 224.451 94.7285C224.807 94.5234 225.064 94.2568 225.224 93.9287V92.4111H224.232C222.683 92.4111 221.908 92.8646 221.908 93.7715C221.908 94.168 222.04 94.4779 222.305 94.7012C222.569 94.9245 222.909 95.0361 223.323 95.0361ZM229.776 88.6035V96.8545C229.776 98.2764 229.132 98.9873 227.842 98.9873C227.564 98.9873 227.306 98.9463 227.069 98.8643V97.8525C227.215 97.889 227.407 97.9072 227.644 97.9072C227.926 97.9072 228.14 97.8298 228.286 97.6748C228.437 97.5244 228.512 97.2601 228.512 96.8818V88.6035H229.776ZM228.382 86.6416C228.382 86.4411 228.443 86.2702 228.566 86.1289C228.694 85.9831 228.879 85.9102 229.12 85.9102C229.366 85.9102 229.553 85.9808 229.681 86.1221C229.808 86.2633 229.872 86.4365 229.872 86.6416C229.872 86.8467 229.808 87.0176 229.681 87.1543C229.553 87.291 229.366 87.3594 229.12 87.3594C228.874 87.3594 228.689 87.291 228.566 87.1543C228.443 87.0176 228.382 86.8467 228.382 86.6416ZM231.485 92.2334C231.485 91.5088 231.627 90.8571 231.909 90.2783C232.196 89.6995 232.593 89.2529 233.099 88.9385C233.609 88.624 234.19 88.4668 234.842 88.4668C235.849 88.4668 236.662 88.8154 237.282 89.5127C237.907 90.21 238.219 91.1374 238.219 92.2949V92.3838C238.219 93.1038 238.08 93.751 237.802 94.3252C237.528 94.8949 237.134 95.3392 236.619 95.6582C236.109 95.9772 235.521 96.1367 234.855 96.1367C233.853 96.1367 233.039 95.7881 232.415 95.0908C231.795 94.3936 231.485 93.4707 231.485 92.3223V92.2334ZM232.757 92.3838C232.757 93.2041 232.946 93.8626 233.324 94.3594C233.707 94.8561 234.217 95.1045 234.855 95.1045C235.498 95.1045 236.008 94.8538 236.387 94.3525C236.765 93.8467 236.954 93.1403 236.954 92.2334C236.954 91.4222 236.76 90.766 236.373 90.2646C235.99 89.7588 235.48 89.5059 234.842 89.5059C234.217 89.5059 233.714 89.7542 233.331 90.251C232.948 90.7477 232.757 91.4587 232.757 92.3838ZM243.38 89.7383C243.188 89.7064 242.981 89.6904 242.758 89.6904C241.928 89.6904 241.366 90.0436 241.069 90.75V96H239.805V88.6035H241.035L241.056 89.458C241.47 88.7972 242.058 88.4668 242.819 88.4668C243.065 88.4668 243.252 88.4987 243.38 88.5625V89.7383ZM245.923 96H244.658V88.6035H245.923V96ZM244.556 86.6416C244.556 86.4365 244.617 86.2633 244.74 86.1221C244.868 85.9808 245.055 85.9102 245.301 85.9102C245.547 85.9102 245.734 85.9808 245.861 86.1221C245.989 86.2633 246.053 86.4365 246.053 86.6416C246.053 86.8467 245.989 87.0176 245.861 87.1543C245.734 87.291 245.547 87.3594 245.301 87.3594C245.055 87.3594 244.868 87.291 244.74 87.1543C244.617 87.0176 244.556 86.8467 244.556 86.6416ZM249.669 86.8125V88.6035H251.05V89.5811H249.669V94.168C249.669 94.4642 249.73 94.6875 249.854 94.8379C249.977 94.9837 250.186 95.0566 250.482 95.0566C250.628 95.0566 250.829 95.0293 251.084 94.9746V96C250.751 96.0911 250.428 96.1367 250.113 96.1367C249.548 96.1367 249.122 95.9658 248.835 95.624C248.548 95.2822 248.404 94.7969 248.404 94.168V89.5811H247.058V88.6035H248.404V86.8125H249.669ZM254.953 94.1475L256.676 88.6035H258.029L255.056 97.1416C254.595 98.3721 253.864 98.9873 252.861 98.9873L252.622 98.9668L252.15 98.8779V97.8525L252.492 97.8799C252.921 97.8799 253.253 97.7933 253.49 97.6201C253.732 97.4469 253.93 97.1302 254.085 96.6699L254.365 95.918L251.727 88.6035H253.107L254.953 94.1475ZM263.901 89.499C264.462 88.8109 265.191 88.4668 266.089 88.4668C267.652 88.4668 268.44 89.3486 268.454 91.1123V96H267.189V91.1055C267.185 90.5723 267.062 90.1781 266.82 89.9229C266.583 89.6676 266.212 89.54 265.706 89.54C265.296 89.54 264.936 89.6494 264.626 89.8682C264.316 90.0869 264.075 90.374 263.901 90.7295V96H262.637V85.5H263.901V89.499ZM274.914 96C274.841 95.8542 274.782 95.5944 274.736 95.2207C274.148 95.8314 273.447 96.1367 272.631 96.1367C271.902 96.1367 271.302 95.9316 270.833 95.5215C270.368 95.1068 270.136 94.5827 270.136 93.9492C270.136 93.179 270.427 92.582 271.011 92.1582C271.599 91.7298 272.424 91.5156 273.485 91.5156H274.716V90.9346C274.716 90.4925 274.584 90.1416 274.319 89.8818C274.055 89.6175 273.665 89.4854 273.15 89.4854C272.699 89.4854 272.321 89.5993 272.016 89.8271C271.71 90.055 271.558 90.3307 271.558 90.6543H270.286C270.286 90.2852 270.416 89.9297 270.676 89.5879C270.94 89.2415 271.296 88.9681 271.742 88.7676C272.193 88.5671 272.688 88.4668 273.226 88.4668C274.078 88.4668 274.745 88.681 275.229 89.1094C275.712 89.5332 275.962 90.1188 275.98 90.8662V94.2705C275.98 94.9495 276.067 95.4896 276.24 95.8906V96H274.914ZM272.815 95.0361C273.212 95.0361 273.588 94.9336 273.943 94.7285C274.299 94.5234 274.556 94.2568 274.716 93.9287V92.4111H273.725C272.175 92.4111 271.4 92.8646 271.4 93.7715C271.4 94.168 271.533 94.4779 271.797 94.7012C272.061 94.9245 272.401 95.0361 272.815 95.0361ZM280.294 94.2842L282.126 88.6035H283.418L280.766 96H279.802L277.122 88.6035H278.414L280.294 94.2842ZM287.608 96.1367C286.606 96.1367 285.79 95.8086 285.161 95.1523C284.532 94.4915 284.218 93.6097 284.218 92.5068V92.2744C284.218 91.5407 284.357 90.8867 284.635 90.3125C284.917 89.7337 285.309 89.2826 285.811 88.959C286.316 88.6309 286.863 88.4668 287.451 88.4668C288.413 88.4668 289.16 88.7835 289.693 89.417C290.227 90.0505 290.493 90.9574 290.493 92.1377V92.6641H285.482C285.501 93.3932 285.713 93.9834 286.118 94.4346C286.528 94.8812 287.048 95.1045 287.677 95.1045C288.123 95.1045 288.502 95.0133 288.812 94.8311C289.121 94.6488 289.393 94.4072 289.625 94.1064L290.397 94.708C289.778 95.6605 288.848 96.1367 287.608 96.1367ZM287.451 89.5059C286.941 89.5059 286.512 89.6927 286.166 90.0664C285.82 90.4355 285.605 90.9551 285.523 91.625H289.229V91.5293C289.192 90.8867 289.019 90.39 288.709 90.0391C288.399 89.6836 287.98 89.5059 287.451 89.5059ZM19.2637 110.038C19.2637 109.696 19.1338 109.432 18.874 109.245C18.6188 109.054 18.1699 108.89 17.5273 108.753C16.8893 108.616 16.3812 108.452 16.0029 108.261C15.6292 108.069 15.3512 107.841 15.1689 107.577C14.9912 107.313 14.9023 106.998 14.9023 106.634C14.9023 106.028 15.1576 105.515 15.668 105.096C16.1829 104.676 16.8392 104.467 17.6367 104.467C18.4753 104.467 19.1543 104.683 19.6738 105.116C20.1979 105.549 20.46 106.103 20.46 106.777H19.1885C19.1885 106.431 19.0404 106.132 18.7441 105.882C18.4525 105.631 18.0833 105.506 17.6367 105.506C17.1764 105.506 16.8164 105.606 16.5566 105.807C16.2969 106.007 16.167 106.269 16.167 106.593C16.167 106.898 16.2878 107.128 16.5293 107.283C16.7708 107.438 17.2061 107.586 17.835 107.728C18.4684 107.869 18.9811 108.037 19.373 108.233C19.765 108.429 20.0544 108.666 20.2412 108.944C20.4326 109.218 20.5283 109.553 20.5283 109.949C20.5283 110.61 20.264 111.141 19.7354 111.542C19.2067 111.938 18.5208 112.137 17.6777 112.137C17.0853 112.137 16.5612 112.032 16.1055 111.822C15.6497 111.613 15.292 111.321 15.0322 110.947C14.777 110.569 14.6494 110.161 14.6494 109.724H15.9141C15.9368 110.147 16.1055 110.485 16.4199 110.735C16.7389 110.981 17.1582 111.104 17.6777 111.104C18.1562 111.104 18.5391 111.009 18.8262 110.817C19.1178 110.621 19.2637 110.362 19.2637 110.038ZM26.7422 111.269C26.25 111.847 25.5277 112.137 24.5752 112.137C23.7868 112.137 23.1852 111.909 22.7705 111.453C22.3604 110.993 22.153 110.314 22.1484 109.416V104.604H23.4131V109.382C23.4131 110.503 23.8688 111.063 24.7803 111.063C25.7464 111.063 26.389 110.703 26.708 109.983V104.604H27.9727V112H26.7695L26.7422 111.269ZM30.5225 112V105.581H29.3535V104.604H30.5225V103.845C30.5225 103.052 30.7344 102.439 31.1582 102.006C31.582 101.573 32.1813 101.356 32.9561 101.356C33.2477 101.356 33.5371 101.395 33.8242 101.473L33.7559 102.498C33.5417 102.457 33.3138 102.437 33.0723 102.437C32.6621 102.437 32.3454 102.557 32.1221 102.799C31.8988 103.036 31.7871 103.378 31.7871 103.824V104.604H33.3662V105.581H31.7871V112H30.5225ZM35.3896 112V105.581H34.2207V104.604H35.3896V103.845C35.3896 103.052 35.6016 102.439 36.0254 102.006C36.4492 101.573 37.0485 101.356 37.8232 101.356C38.1149 101.356 38.4043 101.395 38.6914 101.473L38.623 102.498C38.4089 102.457 38.181 102.437 37.9395 102.437C37.5293 102.437 37.2126 102.557 36.9893 102.799C36.766 103.036 36.6543 103.378 36.6543 103.824V104.604H38.2334V105.581H36.6543V112H35.3896ZM42.54 112.137C41.5374 112.137 40.7217 111.809 40.0928 111.152C39.4639 110.492 39.1494 109.61 39.1494 108.507V108.274C39.1494 107.541 39.2884 106.887 39.5664 106.312C39.849 105.734 40.2409 105.283 40.7422 104.959C41.248 104.631 41.7949 104.467 42.3828 104.467C43.3444 104.467 44.0918 104.784 44.625 105.417C45.1582 106.05 45.4248 106.957 45.4248 108.138V108.664H40.4141C40.4323 109.393 40.6442 109.983 41.0498 110.435C41.46 110.881 41.9795 111.104 42.6084 111.104C43.055 111.104 43.4333 111.013 43.7432 110.831C44.0531 110.649 44.3242 110.407 44.5566 110.106L45.3291 110.708C44.7093 111.66 43.7796 112.137 42.54 112.137ZM42.3828 105.506C41.8724 105.506 41.444 105.693 41.0977 106.066C40.7513 106.436 40.5371 106.955 40.4551 107.625H44.1602V107.529C44.1237 106.887 43.9505 106.39 43.6406 106.039C43.3307 105.684 42.9115 105.506 42.3828 105.506ZM50.4697 105.738C50.2783 105.706 50.071 105.69 49.8477 105.69C49.0182 105.69 48.4554 106.044 48.1592 106.75V112H46.8945V104.604H48.125L48.1455 105.458C48.5602 104.797 49.1481 104.467 49.9092 104.467C50.1553 104.467 50.3421 104.499 50.4697 104.562V105.738ZM54.5713 112.137C53.5687 112.137 52.7529 111.809 52.124 111.152C51.4951 110.492 51.1807 109.61 51.1807 108.507V108.274C51.1807 107.541 51.3197 106.887 51.5977 106.312C51.8802 105.734 52.2721 105.283 52.7734 104.959C53.2793 104.631 53.8262 104.467 54.4141 104.467C55.3757 104.467 56.123 104.784 56.6562 105.417C57.1895 106.05 57.4561 106.957 57.4561 108.138V108.664H52.4453C52.4635 109.393 52.6755 109.983 53.0811 110.435C53.4912 110.881 54.0107 111.104 54.6396 111.104C55.0863 111.104 55.4645 111.013 55.7744 110.831C56.0843 110.649 56.3555 110.407 56.5879 110.106L57.3604 110.708C56.7406 111.66 55.8109 112.137 54.5713 112.137ZM54.4141 105.506C53.9036 105.506 53.4753 105.693 53.1289 106.066C52.7826 106.436 52.5684 106.955 52.4863 107.625H56.1914V107.529C56.1549 106.887 55.9818 106.39 55.6719 106.039C55.362 105.684 54.9427 105.506 54.4141 105.506ZM58.6182 108.24C58.6182 107.105 58.887 106.194 59.4248 105.506C59.9626 104.813 60.6667 104.467 61.5371 104.467C62.403 104.467 63.0889 104.763 63.5947 105.355V101.5H64.8594V112H63.6973L63.6357 111.207C63.1299 111.827 62.4258 112.137 61.5234 112.137C60.6667 112.137 59.9671 111.786 59.4248 111.084C58.887 110.382 58.6182 109.466 58.6182 108.336V108.24ZM59.8828 108.384C59.8828 109.222 60.056 109.879 60.4023 110.353C60.7487 110.826 61.2272 111.063 61.8379 111.063C62.64 111.063 63.2256 110.703 63.5947 109.983V106.586C63.2165 105.889 62.6354 105.54 61.8516 105.54C61.2318 105.54 60.7487 105.779 60.4023 106.258C60.056 106.736 59.8828 107.445 59.8828 108.384ZM74.8672 112C74.7943 111.854 74.735 111.594 74.6895 111.221C74.1016 111.831 73.3997 112.137 72.584 112.137C71.8548 112.137 71.2555 111.932 70.7861 111.521C70.3213 111.107 70.0889 110.583 70.0889 109.949C70.0889 109.179 70.3805 108.582 70.9639 108.158C71.5518 107.73 72.3766 107.516 73.4385 107.516H74.6689V106.935C74.6689 106.493 74.5368 106.142 74.2725 105.882C74.0081 105.618 73.6185 105.485 73.1035 105.485C72.6523 105.485 72.2741 105.599 71.9688 105.827C71.6634 106.055 71.5107 106.331 71.5107 106.654H70.2393C70.2393 106.285 70.3691 105.93 70.6289 105.588C70.8932 105.242 71.2487 104.968 71.6953 104.768C72.1465 104.567 72.641 104.467 73.1787 104.467C74.0309 104.467 74.6986 104.681 75.1816 105.109C75.6647 105.533 75.9154 106.119 75.9336 106.866V110.271C75.9336 110.95 76.0202 111.49 76.1934 111.891V112H74.8672ZM72.7686 111.036C73.165 111.036 73.541 110.934 73.8965 110.729C74.252 110.523 74.5094 110.257 74.6689 109.929V108.411H73.6777C72.1283 108.411 71.3535 108.865 71.3535 109.771C71.3535 110.168 71.4857 110.478 71.75 110.701C72.0143 110.924 72.3538 111.036 72.7686 111.036ZM79.29 112H78.0254V101.5H79.29V112ZM83.0361 102.812V104.604H84.417V105.581H83.0361V110.168C83.0361 110.464 83.0977 110.688 83.2207 110.838C83.3438 110.984 83.5534 111.057 83.8496 111.057C83.9954 111.057 84.196 111.029 84.4512 110.975V112C84.1185 112.091 83.7949 112.137 83.4805 112.137C82.9154 112.137 82.4893 111.966 82.2021 111.624C81.915 111.282 81.7715 110.797 81.7715 110.168V105.581H80.4248V104.604H81.7715V102.812H83.0361ZM88.9697 112.137C87.9671 112.137 87.1514 111.809 86.5225 111.152C85.8936 110.492 85.5791 109.61 85.5791 108.507V108.274C85.5791 107.541 85.7181 106.887 85.9961 106.312C86.2786 105.734 86.6706 105.283 87.1719 104.959C87.6777 104.631 88.2246 104.467 88.8125 104.467C89.7741 104.467 90.5215 104.784 91.0547 105.417C91.5879 106.05 91.8545 106.957 91.8545 108.138V108.664H86.8438C86.862 109.393 87.0739 109.983 87.4795 110.435C87.8896 110.881 88.4092 111.104 89.0381 111.104C89.4847 111.104 89.863 111.013 90.1729 110.831C90.4827 110.649 90.7539 110.407 90.9863 110.106L91.7588 110.708C91.139 111.66 90.2093 112.137 88.9697 112.137ZM88.8125 105.506C88.3021 105.506 87.8737 105.693 87.5273 106.066C87.181 106.436 86.9668 106.955 86.8848 107.625H90.5898V107.529C90.5534 106.887 90.3802 106.39 90.0703 106.039C89.7604 105.684 89.3411 105.506 88.8125 105.506ZM96.8994 105.738C96.708 105.706 96.5007 105.69 96.2773 105.69C95.4479 105.69 94.8851 106.044 94.5889 106.75V112H93.3242V104.604H94.5547L94.5752 105.458C94.9899 104.797 95.5778 104.467 96.3389 104.467C96.585 104.467 96.7718 104.499 96.8994 104.562V105.738ZM102.361 112C102.288 111.854 102.229 111.594 102.184 111.221C101.596 111.831 100.894 112.137 100.078 112.137C99.349 112.137 98.7497 111.932 98.2803 111.521C97.8154 111.107 97.583 110.583 97.583 109.949C97.583 109.179 97.8747 108.582 98.458 108.158C99.0459 107.73 99.8708 107.516 100.933 107.516H102.163V106.935C102.163 106.493 102.031 106.142 101.767 105.882C101.502 105.618 101.113 105.485 100.598 105.485C100.146 105.485 99.7682 105.599 99.4629 105.827C99.1576 106.055 99.0049 106.331 99.0049 106.654H97.7334C97.7334 106.285 97.8633 105.93 98.123 105.588C98.3874 105.242 98.7428 104.968 99.1895 104.768C99.6406 104.567 100.135 104.467 100.673 104.467C101.525 104.467 102.193 104.681 102.676 105.109C103.159 105.533 103.41 106.119 103.428 106.866V110.271C103.428 110.95 103.514 111.49 103.688 111.891V112H102.361ZM100.263 111.036C100.659 111.036 101.035 110.934 101.391 110.729C101.746 110.523 102.004 110.257 102.163 109.929V108.411H101.172C99.6224 108.411 98.8477 108.865 98.8477 109.771C98.8477 110.168 98.9798 110.478 99.2441 110.701C99.5085 110.924 99.848 111.036 100.263 111.036ZM107.126 102.812V104.604H108.507V105.581H107.126V110.168C107.126 110.464 107.188 110.688 107.311 110.838C107.434 110.984 107.643 111.057 107.939 111.057C108.085 111.057 108.286 111.029 108.541 110.975V112C108.208 112.091 107.885 112.137 107.57 112.137C107.005 112.137 106.579 111.966 106.292 111.624C106.005 111.282 105.861 110.797 105.861 110.168V105.581H104.515V104.604H105.861V102.812H107.126ZM111.364 112H110.1V104.604H111.364V112ZM109.997 102.642C109.997 102.437 110.059 102.263 110.182 102.122C110.309 101.981 110.496 101.91 110.742 101.91C110.988 101.91 111.175 101.981 111.303 102.122C111.43 102.263 111.494 102.437 111.494 102.642C111.494 102.847 111.43 103.018 111.303 103.154C111.175 103.291 110.988 103.359 110.742 103.359C110.496 103.359 110.309 103.291 110.182 103.154C110.059 103.018 109.997 102.847 109.997 102.642ZM113.06 108.233C113.06 107.509 113.201 106.857 113.483 106.278C113.771 105.7 114.167 105.253 114.673 104.938C115.183 104.624 115.764 104.467 116.416 104.467C117.423 104.467 118.237 104.815 118.856 105.513C119.481 106.21 119.793 107.137 119.793 108.295V108.384C119.793 109.104 119.654 109.751 119.376 110.325C119.103 110.895 118.708 111.339 118.193 111.658C117.683 111.977 117.095 112.137 116.43 112.137C115.427 112.137 114.614 111.788 113.989 111.091C113.369 110.394 113.06 109.471 113.06 108.322V108.233ZM114.331 108.384C114.331 109.204 114.52 109.863 114.898 110.359C115.281 110.856 115.792 111.104 116.43 111.104C117.072 111.104 117.583 110.854 117.961 110.353C118.339 109.847 118.528 109.14 118.528 108.233C118.528 107.422 118.335 106.766 117.947 106.265C117.564 105.759 117.054 105.506 116.416 105.506C115.792 105.506 115.288 105.754 114.905 106.251C114.522 106.748 114.331 107.459 114.331 108.384ZM122.575 104.604L122.616 105.533C123.181 104.822 123.92 104.467 124.831 104.467C126.394 104.467 127.183 105.349 127.196 107.112V112H125.932V107.105C125.927 106.572 125.804 106.178 125.562 105.923C125.326 105.668 124.954 105.54 124.448 105.54C124.038 105.54 123.678 105.649 123.368 105.868C123.058 106.087 122.817 106.374 122.644 106.729V112H121.379V104.604H122.575ZM129.131 111.337C129.131 111.118 129.195 110.936 129.322 110.79C129.454 110.644 129.65 110.571 129.91 110.571C130.17 110.571 130.366 110.644 130.498 110.79C130.635 110.936 130.703 111.118 130.703 111.337C130.703 111.547 130.635 111.722 130.498 111.863C130.366 112.005 130.17 112.075 129.91 112.075C129.65 112.075 129.454 112.005 129.322 111.863C129.195 111.722 129.131 111.547 129.131 111.337Z" fill="#F5F0F0"/>
<line x1="14" y1="148.5" x2="155" y2="148.5" stroke="#F5A402" stroke-width="3"/>
</svg>
