<svg width="111" height="43" viewBox="0 0 111 43" fill="none" xmlns="http://www.w3.org/2000/svg">
<path d="M24.84 8.972V35H22.356C21.972 35 21.648 34.94 21.384 34.82C21.132 34.688 20.886 34.472 20.646 34.172L7.056 16.82C7.128 17.612 7.164 18.344 7.164 19.016V35H2.898V8.972H5.436C5.64 8.972 5.814 8.984 5.958 9.008C6.114 9.02 6.246 9.056 6.354 9.116C6.474 9.164 6.588 9.242 6.696 9.35C6.804 9.446 6.924 9.578 7.056 9.746L20.7 27.17C20.664 26.75 20.634 26.336 20.61 25.928C20.586 25.52 20.574 25.142 20.574 24.794V8.972H24.84ZM55.4583 21.986C55.4583 23.894 55.1403 25.664 54.5043 27.296C53.8803 28.916 52.9923 30.32 51.8403 31.508C50.6883 32.696 49.3023 33.626 47.6823 34.298C46.0623 34.958 44.2623 35.288 42.2823 35.288C40.3143 35.288 38.5203 34.958 36.9003 34.298C35.2803 33.626 33.8883 32.696 32.7243 31.508C31.5723 30.32 30.6783 28.916 30.0423 27.296C29.4063 25.664 29.0883 23.894 29.0883 21.986C29.0883 20.078 29.4063 18.314 30.0423 16.694C30.6783 15.062 31.5723 13.652 32.7243 12.464C33.8883 11.276 35.2803 10.352 36.9003 9.692C38.5203 9.02 40.3143 8.684 42.2823 8.684C43.6023 8.684 44.8443 8.84 46.0083 9.152C47.1723 9.452 48.2403 9.884 49.2123 10.448C50.1843 11 51.0543 11.678 51.8223 12.482C52.6023 13.274 53.2623 14.162 53.8023 15.146C54.3423 16.13 54.7503 17.198 55.0263 18.35C55.3143 19.502 55.4583 20.714 55.4583 21.986ZM50.5083 21.986C50.5083 20.558 50.3163 19.28 49.9323 18.152C49.5483 17.012 49.0023 16.046 48.2943 15.254C47.5863 14.462 46.7223 13.856 45.7023 13.436C44.6943 13.016 43.5543 12.806 42.2823 12.806C41.0103 12.806 39.8643 13.016 38.8443 13.436C37.8363 13.856 36.9723 14.462 36.2523 15.254C35.5443 16.046 34.9983 17.012 34.6143 18.152C34.2303 19.28 34.0383 20.558 34.0383 21.986C34.0383 23.414 34.2303 24.698 34.6143 25.838C34.9983 26.966 35.5443 27.926 36.2523 28.718C36.9723 29.498 37.8363 30.098 38.8443 30.518C39.8643 30.938 41.0103 31.148 42.2823 31.148C43.5543 31.148 44.6943 30.938 45.7023 30.518C46.7223 30.098 47.5863 29.498 48.2943 28.718C49.0023 27.926 49.5483 26.966 49.9323 25.838C50.3163 24.698 50.5083 23.414 50.5083 21.986ZM81.1688 8.972L70.6568 35H66.2828L55.7707 8.972H59.6588C60.0788 8.972 60.4208 9.074 60.6848 9.278C60.9488 9.482 61.1468 9.746 61.2788 10.07L67.4168 25.946C67.6208 26.462 67.8128 27.032 67.9928 27.656C68.1848 28.268 68.3648 28.91 68.5328 29.582C68.6768 28.91 68.8328 28.268 69.0008 27.656C69.1688 27.032 69.3548 26.462 69.5588 25.946L75.6608 10.07C75.7568 9.794 75.9427 9.542 76.2188 9.314C76.5068 9.086 76.8548 8.972 77.2628 8.972H81.1688Z" fill="white"/>
<path d="M93.5 8L108.655 34.25H78.3446L93.5 8Z" fill="white"/>
</svg>
