<svg width="55" height="22" viewBox="0 0 55 22" fill="none" xmlns="http://www.w3.org/2000/svg">
<path d="M12.42 4.986V18H11.178C10.986 18 10.824 17.97 10.692 17.91C10.566 17.844 10.443 17.736 10.323 17.586L3.528 8.91C3.564 9.306 3.582 9.672 3.582 10.008V18H1.449V4.986H2.718C2.82 4.986 2.907 4.992 2.979 5.004C3.057 5.01 3.123 5.028 3.177 5.058C3.237 5.082 3.294 5.121 3.348 5.175C3.402 5.223 3.462 5.289 3.528 5.373L10.35 14.085C10.332 13.875 10.317 13.668 10.305 13.464C10.293 13.26 10.287 13.071 10.287 12.897V4.986H12.42ZM27.7291 11.493C27.7291 12.447 27.5701 13.332 27.2521 14.148C26.9401 14.958 26.4961 15.66 25.9201 16.254C25.3441 16.848 24.6511 17.313 23.8411 17.649C23.0311 17.979 22.1311 18.144 21.1411 18.144C20.1571 18.144 19.2601 17.979 18.4501 17.649C17.6401 17.313 16.9441 16.848 16.3621 16.254C15.7861 15.66 15.3391 14.958 15.0211 14.148C14.7031 13.332 14.5441 12.447 14.5441 11.493C14.5441 10.539 14.7031 9.657 15.0211 8.847C15.3391 8.031 15.7861 7.326 16.3621 6.732C16.9441 6.138 17.6401 5.676 18.4501 5.346C19.2601 5.01 20.1571 4.842 21.1411 4.842C21.8011 4.842 22.4221 4.92 23.0041 5.076C23.5861 5.226 24.1201 5.442 24.6061 5.724C25.0921 6 25.5271 6.339 25.9111 6.741C26.3011 7.137 26.6311 7.581 26.9011 8.073C27.1711 8.565 27.3751 9.099 27.5131 9.675C27.6571 10.251 27.7291 10.857 27.7291 11.493ZM25.2541 11.493C25.2541 10.779 25.1581 10.14 24.9661 9.576C24.7741 9.006 24.5011 8.523 24.1471 8.127C23.7931 7.731 23.3611 7.428 22.8511 7.218C22.3471 7.008 21.7771 6.903 21.1411 6.903C20.5051 6.903 19.9321 7.008 19.4221 7.218C18.9181 7.428 18.4861 7.731 18.1261 8.127C17.7721 8.523 17.4991 9.006 17.3071 9.576C17.1151 10.14 17.0191 10.779 17.0191 11.493C17.0191 12.207 17.1151 12.849 17.3071 13.419C17.4991 13.983 17.7721 14.463 18.1261 14.859C18.4861 15.249 18.9181 15.549 19.4221 15.759C19.9321 15.969 20.5051 16.074 21.1411 16.074C21.7771 16.074 22.3471 15.969 22.8511 15.759C23.3611 15.549 23.7931 15.249 24.1471 14.859C24.5011 14.463 24.7741 13.983 24.9661 13.419C25.1581 12.849 25.2541 12.207 25.2541 11.493ZM40.5844 4.986L35.3284 18H33.1414L27.8854 4.986H29.8294C30.0394 4.986 30.2104 5.037 30.3424 5.139C30.4744 5.241 30.5734 5.373 30.6394 5.535L33.7084 13.473C33.8104 13.731 33.9064 14.016 33.9964 14.328C34.0924 14.634 34.1824 14.955 34.2664 15.291C34.3384 14.955 34.4164 14.634 34.5004 14.328C34.5844 14.016 34.6774 13.731 34.7794 13.473L37.8304 5.535C37.8784 5.397 37.9714 5.271 38.1094 5.157C38.2534 5.043 38.4274 4.986 38.6314 4.986H40.5844Z" fill="white"/>
<path d="M46.5 5L53.8612 17.75H39.1388L46.5 5Z" fill="white"/>
</svg>
