<svg width="48" height="48" viewBox="0 0 48 48" fill="none" xmlns="http://www.w3.org/2000/svg">
<path d="M24 48C37.2548 48 48 37.2548 48 24C48 10.7452 37.2548 0 24 0C10.7452 0 0 10.7452 0 24C0 37.2548 10.7452 48 24 48Z" fill="#DA0000"/>
<path d="M39.3312 16.298C38.9632 14.9213 37.8788 13.8368 36.502 13.4688C34.0068 12.8 24 12.8 24 12.8C24 12.8 13.9932 12.8 11.498 13.4688C10.1212 13.8368 9.0368 14.9213 8.6688 16.298C8 18.7933 8 24 8 24C8 24 8 29.2068 8.6688 31.7021C9.0368 33.0788 10.1212 34.1632 11.498 34.5312C13.9932 35.2001 24 35.2 24 35.2C24 35.2 34.0068 35.2001 36.502 34.5312C37.8788 34.1632 38.9632 33.0788 39.3312 31.7021C40 29.2068 40 24 40 24C40 24 40 18.7933 39.3312 16.298ZM20.8 28.8V19.2L29.1136 24L20.8 28.8Z" fill="white"/>
</svg>
